<svg id="Component_12_1" data-name="Component 12 – 1" xmlns="http://www.w3.org/2000/svg" width="340" height="92" viewBox="0 0 340 92">
  <g id="White_x5F_bg" transform="translate(0.322 11.576)">
    <g id="Group_32" data-name="Group 32" transform="translate(-0.043)">
      <g id="Group_31" data-name="Group 31" transform="translate(19.918)">
        <g id="Group_18" data-name="Group 18" transform="translate(0 0.053)">
          <path id="Path_304" data-name="Path 304" d="M80.176,23.389a1.789,1.789,0,0,0,1.5-.686L84.8,18.056h15.762l3.327,4.647a1.839,1.839,0,0,0,1.531.686c1.135,0,2.429-.766,2.429-1.8a1.431,1.431,0,0,0-.264-.818L94.961,3.509h0A2.913,2.913,0,0,0,92.453,2.4a2.869,2.869,0,0,0-2.535,1.109L78.038,20.8a1.545,1.545,0,0,0-.238.766C77.8,22.624,79.067,23.389,80.176,23.389Zm7.049-8.95,5.228-7.762,5.518,7.762Z" transform="translate(-77.166 -1.819)" fill="#fff"/>
          <path id="Path_305" data-name="Path 305" d="M103.65,22.4a2.49,2.49,0,0,1-2.033-.924l-3.142-4.409h-15.1l-2.931,4.356a2.421,2.421,0,0,1-2.033.977c-1.426,0-3.01-1-3.01-2.429a1.945,1.945,0,0,1,.343-1.082l.026-.026L87.65,1.573a4.07,4.07,0,0,1,6.072-.026l12.646,17.319a2.155,2.155,0,0,1,.37,1.162C106.712,21.427,105.1,22.4,103.65,22.4ZM82.713,15.83H99.135l3.511,4.911a1.233,1.233,0,0,0,1,.422c.9,0,1.8-.581,1.8-1.162a.852.852,0,0,0-.158-.475L92.693,2.259a2.289,2.289,0,0,0-2.007-.845,2.249,2.249,0,0,0-2.033.845L76.8,19.526a.927.927,0,0,0-.158.422c0,.581.9,1.188,1.769,1.188a1.111,1.111,0,0,0,.977-.422Zm14.706-2.376H84.271l6.389-9.5ZM86.647,12.186h8.369l-4.3-6.046Z" transform="translate(-75.4 -0.2)" fill="#fff"/>
        </g>
        <g id="Group_19" data-name="Group 19" transform="translate(36.936 0.106)">
          <path id="Path_306" data-name="Path 306" d="M219.308,23.552H235.73c5.888,0,8.871-1.848,8.871-5.465V8.265c0-3.643-2.983-5.465-8.871-5.465h-16.4A1.438,1.438,0,0,0,217.7,4.384V21.941A1.438,1.438,0,0,0,219.308,23.552Zm2.851-3.617V6.417h13.465c4.251,0,4.567,1.426,4.567,1.848V18.06c0,1.135-1.742,1.848-4.567,1.848H222.159Z" transform="translate(-217.064 -2.166)" fill="#fff"/>
          <path id="Path_307" data-name="Path 307" d="M233.966,22.419h-16.4a2.1,2.1,0,0,1-2.271-2.244V2.618A2.056,2.056,0,0,1,217.571.4h16.4c4.33,0,9.5,1.056,9.5,6.1v9.795C243.47,21.363,238.3,22.419,233.966,22.419ZM217.544,1.667c-.739,0-1.03.264-1.03.977V20.2c0,.686.317,1,1.03,1h16.422c5.544,0,8.264-1.584,8.264-4.858V6.5c0-3.274-2.693-4.858-8.264-4.858H217.544ZM233.834,18.8H219.762V4.043h14.072c4.7,0,5.2,1.743,5.2,2.482V16.32C239.035,17.851,237.108,18.8,233.834,18.8ZM221,17.535h12.831c2.561,0,3.96-.634,3.96-1.214V6.5c0-.422-.818-1.214-3.96-1.214H221Z" transform="translate(-215.3 -0.4)" fill="#fff"/>
        </g>
        <g id="Group_20" data-name="Group 20" transform="translate(69.436 0.026)">
          <path id="Path_308" data-name="Path 308" d="M353.89,22.207a2.881,2.881,0,0,0,2.508,1.109,2.807,2.807,0,0,0,2.535-1.109L371.5,4.94a1.29,1.29,0,0,0,.29-.818c0-1.03-1.32-1.822-2.482-1.822a1.789,1.789,0,0,0-1.531.713L356.5,18.8,345.071,3.039a2.009,2.009,0,0,0-1.637-.713c-1.188,0-2.535.792-2.535,1.8a1.331,1.331,0,0,0,.29.818Z" transform="translate(-340.24 -1.719)" fill="#fff"/>
          <path id="Path_309" data-name="Path 309" d="M354.558,22.3a3.46,3.46,0,0,1-3.01-1.346L338.8,3.664a2.1,2.1,0,0,1-.4-1.162c0-1.135,1.294-2.4,3.168-2.4a2.725,2.725,0,0,1,2.165.977l10.9,15.075L365.462,1.077A2.421,2.421,0,0,1,367.495.1c1.478,0,3.115,1,3.115,2.429a1.918,1.918,0,0,1-.422,1.188L357.62,20.957A3.528,3.528,0,0,1,354.558,22.3ZM339.852,2.951l12.7,17.267a2.228,2.228,0,0,0,2.007.845,2.279,2.279,0,0,0,2.033-.845l12.62-17.293a.582.582,0,0,0,.158-.4c0-.581-.924-1.188-1.848-1.188a1.143,1.143,0,0,0-1,.449L354.663,18.264,342.7,1.79a1.437,1.437,0,0,0-1.135-.449c-.924,0-1.927.607-1.927,1.162A.978.978,0,0,0,339.852,2.951Z" transform="translate(-338.4 -0.1)" fill="#fff"/>
        </g>
        <g id="Group_21" data-name="Group 21" transform="translate(106.002 0.106)">
          <path id="Path_310" data-name="Path 310" d="M488.144,23.478h13.94c1.267,0,1.452-.924,1.452-1.822,0-.95-.185-1.822-1.452-1.822H488.25c-2.8,0-4.541-.713-4.541-1.848V15.056H502.19c1.267,0,1.452-.871,1.452-1.822s-.185-1.822-1.452-1.822H483.735V8.192c0-1.162,1.69-1.848,4.541-1.848h4.2c1.241,0,1.426-.871,1.426-1.822S493.741,2.7,492.474,2.7h-4.3c-5.888,0-8.871,1.848-8.871,5.465V17.96C479.273,21.63,482.257,23.478,488.144,23.478Z" transform="translate(-478.666 -2.093)" fill="#fff"/>
          <path id="Path_311" data-name="Path 311" d="M500.345,22.419H486.4c-4.33,0-9.5-1.056-9.5-6.1V6.5c0-2.772,1.637-6.1,9.5-6.1h4.3c1.346,0,2.033.818,2.033,2.429s-.686,2.429-2.033,2.429h-4.2c-2.693,0-3.934.634-3.934,1.214V9.086h17.847c1.373,0,2.059.818,2.059,2.429s-.686,2.429-2.059,2.429H482.576v2.3c0,.607,1.347,1.214,3.934,1.214h13.834c1.373,0,2.059.818,2.059,2.429C502.4,21.6,501.717,22.419,500.345,22.419ZM486.378,1.667c-5.544,0-8.264,1.584-8.264,4.858V16.32c0,3.274,2.693,4.858,8.264,4.858h13.94c.581,0,.818-.158.818-1.188,0-1.082-.238-1.188-.818-1.188H486.484c-3.247,0-5.175-.924-5.175-2.482V12.756h19.115c.554,0,.818-.106.818-1.188s-.238-1.188-.818-1.188H481.336V6.5c0-1.584,1.874-2.482,5.175-2.482h4.2c.528,0,.792-.106.792-1.188,0-1.056-.264-1.188-.792-1.188h-4.33Z" transform="translate(-476.9 -0.4)" fill="#fff"/>
        </g>
        <g id="Group_22" data-name="Group 22" transform="translate(137.842)">
          <path id="Path_312" data-name="Path 312" d="M602.118,23.289c1.162,0,2.244-.185,2.244-1.61V8.135l17.5,14.151h0a3.11,3.11,0,0,0,2.482,1c1.109,0,2.3-.132,2.3-1.61V3.937c0-1.426-1.082-1.61-2.244-1.61s-2.218.185-2.218,1.61V17.481L604.943,3.409a3.96,3.96,0,0,0-2.9-1.109c-1,0-2.139.185-2.139,1.61V21.652C599.9,23.1,600.956,23.289,602.118,23.289Z" transform="translate(-599.266 -1.693)" fill="#fff"/>
          <path id="Path_313" data-name="Path 313" d="M622.581,22.23a3.768,3.768,0,0,1-2.878-1.135L603.229,7.788V20.012c0,2.244-2.165,2.244-2.878,2.244s-2.851,0-2.851-2.244V2.244C597.5.766,598.424,0,600.272,0a4.5,4.5,0,0,1,3.3,1.241l16.211,13.254V2.244C619.783,0,621.921,0,622.634,0s2.878,0,2.878,2.244V19.986C625.512,22.23,623.373,22.23,622.581,22.23Zm-2.112-2.112c1,.792,1.188.871,2.086.871,1.452,0,1.69-.29,1.69-1V2.244c0-.66-.238-1-1.637-1-1.373,0-1.584.317-1.584,1V17.108L602.78,2.218a3.335,3.335,0,0,0-2.508-.95c-1.267,0-1.5.343-1.5,1V20.012c0,.686.238,1,1.584,1,1.4,0,1.637-.317,1.637-1V5.148Z" transform="translate(-597.5)" fill="#fff"/>
        </g>
        <g id="Group_23" data-name="Group 23" transform="translate(171.478 0.132)">
          <path id="Path_314" data-name="Path 314" d="M728.579,6.343h8.4v15.63c0,1.426,1.056,1.61,2.218,1.61s2.244-.185,2.244-1.61V6.343h8.422c1.267,0,1.452-.871,1.452-1.822S751.125,2.7,749.858,2.7H728.552c-1.267,0-1.452.871-1.452,1.822S727.311,6.343,728.579,6.343Z" transform="translate(-726.519 -2.119)" fill="#fff"/>
          <path id="Path_315" data-name="Path 315" d="M737.573,22.6c-.713,0-2.851,0-2.851-2.244v-15h-7.762c-1.373,0-2.059-.818-2.059-2.429S725.586.5,726.959.5h21.306c1.373,0,2.059.818,2.059,2.429s-.686,2.429-2.059,2.429h-7.789v15C740.451,22.6,738.286,22.6,737.573,22.6ZM726.959,1.741c-.554,0-.818.106-.818,1.188s.238,1.188.818,1.188h9.029V20.38c0,.686.238,1,1.584,1,1.4,0,1.637-.317,1.637-1V4.117h9.056c.554,0,.818-.106.818-1.188s-.238-1.188-.818-1.188Z" transform="translate(-724.9 -0.5)" fill="#fff"/>
        </g>
        <g id="Group_24" data-name="Group 24" transform="translate(202.394)">
          <path id="Path_316" data-name="Path 316" d="M853.344,23.257h8.924c5.888,0,8.871-1.848,8.871-5.465V4.01c0-1.426-1.056-1.61-2.218-1.61s-2.244.185-2.244,1.61V17.792c0,1.135-1.742,1.848-4.515,1.848h-8.686c-2.8,0-4.515-.713-4.515-1.848V4.01c0-1.426-1.082-1.61-2.244-1.61s-2.218.185-2.218,1.61V17.792C844.473,21.409,847.456,23.257,853.344,23.257Z" transform="translate(-843.839 -1.766)" fill="#fff"/>
          <path id="Path_317" data-name="Path 317" d="M860.428,22.124H851.5c-4.33,0-9.5-1.056-9.5-6.1V2.244C842,0,844.139,0,844.851,0s2.878,0,2.878,2.244V16.026c0,.607,1.346,1.214,3.881,1.214H860.3c2.561,0,3.881-.607,3.881-1.214V2.244C864.2,0,866.369,0,867.081,0s2.851,0,2.851,2.244V16.026C869.933,18.8,868.27,22.124,860.428,22.124ZM844.851,1.241c-1.373,0-1.584.317-1.584,1V16.026c0,3.247,2.693,4.831,8.237,4.831h8.924c5.544,0,8.264-1.584,8.264-4.858V2.244c0-.686-.238-1-1.584-1-1.373,0-1.637.317-1.637,1V16.026c0,1.558-1.927,2.482-5.148,2.482h-8.686c-3.221,0-5.148-.924-5.148-2.482V2.244C846.488,1.558,846.251,1.241,844.851,1.241Z" transform="translate(-842)" fill="#fff"/>
        </g>
        <g id="Group_25" data-name="Group 25" transform="translate(236.822 0.106)">
          <path id="Path_318" data-name="Path 318" d="M977.018,23.657c1.162,0,2.244-.185,2.244-1.61V16.4l16.475,6.838a6.2,6.2,0,0,0,2.429.422c.634,0,2.271,0,2.271-1.61a1.516,1.516,0,0,0-1.135-1.531l-6.97-2.693c-2.587-1-4.119-1.558-5.175-1.927,1.083.026,2.376.026,4.409.026h1.162c5.359,0,8.818-1.9,8.818-4.805V7.605c0-2.931-3.459-4.805-8.818-4.805H976.463A1.456,1.456,0,0,0,974.8,4.384V22.047C974.8,23.472,975.856,23.657,977.018,23.657Zm2.244-11.3V6.417h13.122c3.142,0,4.726.5,4.726,1.452v3.01c0,.977-1.584,1.452-4.726,1.452H979.262Z" transform="translate(-974.166 -2.166)" fill="#fff"/>
          <path id="Path_319" data-name="Path 319" d="M996.4,22.524a6.465,6.465,0,0,1-2.693-.475l-15.577-6.468v4.7c0,2.244-2.165,2.244-2.878,2.244s-2.851,0-2.851-2.244V2.618A2.076,2.076,0,0,1,974.7.4H990.96c5.729,0,9.452,2.139,9.452,5.439V9.35c0,3.3-3.7,5.439-9.452,5.439h-1.954c.528.211,1.135.422,1.8.686l6.97,2.693a2.146,2.146,0,0,1,1.531,2.139C999.3,21.31,998.8,22.524,996.4,22.524Zm-19.511-8.818,17.4,7.234a5.143,5.143,0,0,0,2.112.343c1.373,0,1.663-.37,1.663-1a.9.9,0,0,0-.713-.95l-6.97-2.693c-2.746-1.056-4.277-1.61-5.175-1.927l-3.723-1.32,3.934.106c1.03.026,2.3.026,4.383.026h1.162c4.99,0,8.184-1.637,8.184-4.2V5.839c0-2.535-3.221-4.2-8.184-4.2H974.7c-.766,0-1.056.264-1.056.977V20.28c0,.686.238,1,1.584,1,1.4,0,1.637-.317,1.637-1V13.706ZM990.617,11.2H976.888V4.043h13.729c2.3,0,5.36.211,5.36,2.086v3.01C995.977,10.987,992.914,11.2,990.617,11.2ZM978.129,9.957h12.488c4.039,0,4.092-.818,4.092-.845V6.129s-.053-.845-4.092-.845H978.129Z" transform="translate(-972.4 -0.4)" fill="#fff"/>
        </g>
        <g id="Group_26" data-name="Group 26" transform="translate(270.853 0.106)">
          <path id="Path_320" data-name="Path 320" d="M1112.571,23.478h13.94c1.267,0,1.452-.924,1.452-1.822,0-.95-.185-1.822-1.452-1.822h-13.834c-2.8,0-4.541-.713-4.541-1.848V15.056h18.455c1.267,0,1.452-.871,1.452-1.822s-.185-1.822-1.452-1.822h-18.455V8.192c0-1.162,1.69-1.848,4.541-1.848h4.2c1.241,0,1.426-.871,1.426-1.822s-.158-1.822-1.426-1.822h-4.3c-5.888,0-8.871,1.848-8.871,5.465V17.96C1103.7,21.63,1106.683,23.478,1112.571,23.478Z" transform="translate(-1103.067 -2.093)" fill="#fff"/>
          <path id="Path_321" data-name="Path 321" d="M1124.745,22.419H1110.8c-4.33,0-9.5-1.056-9.5-6.1V6.5c0-2.772,1.637-6.1,9.5-6.1h4.3c1.346,0,2.033.818,2.033,2.429s-.687,2.429-2.033,2.429h-4.2c-2.693,0-3.934.634-3.934,1.214V9.086h17.847c1.373,0,2.059.818,2.059,2.429s-.686,2.429-2.059,2.429h-17.847v2.3c0,.607,1.346,1.214,3.934,1.214h13.834c1.373,0,2.059.818,2.059,2.429C1126.83,21.6,1126.117,22.419,1124.745,22.419ZM1110.8,1.667c-5.544,0-8.264,1.584-8.264,4.858V16.32c0,3.274,2.693,4.858,8.264,4.858h13.94c.581,0,.818-.158.818-1.188,0-1.082-.238-1.188-.818-1.188H1110.91c-3.247,0-5.175-.924-5.175-2.482V12.756h19.088c.554,0,.818-.106.818-1.188s-.238-1.188-.818-1.188h-19.088V6.5c0-1.584,1.875-2.482,5.175-2.482h4.2c.528,0,.792-.106.792-1.188,0-1.056-.264-1.188-.792-1.188h-4.3Z" transform="translate(-1101.3 -0.4)" fill="#fff"/>
        </g>
        <g id="Group_27" data-name="Group 27" transform="translate(0 45.648)">
          <path id="Path_322" data-name="Path 322" d="M100.458,175.2H79.152c-1.267,0-1.452.871-1.452,1.822s.185,1.822,1.452,1.822h8.4v15.63c0,1.426,1.056,1.611,2.218,1.611s2.244-.185,2.244-1.611v-15.63h8.422c1.267,0,1.452-.871,1.452-1.822S101.725,175.2,100.458,175.2Z" transform="translate(-77.093 -174.593)" fill="#fff"/>
          <path id="Path_323" data-name="Path 323" d="M88.1,195c-.713,0-2.851,0-2.851-2.244v-15H77.459c-1.373,0-2.059-.818-2.059-2.429s.686-2.429,2.059-2.429H98.765c1.373,0,2.059.818,2.059,2.429s-.686,2.429-2.059,2.429H90.977v15C90.977,195,88.786,195,88.1,195Zm-10.64-20.857c-.554,0-.818.106-.818,1.188s.238,1.188.818,1.188h9.029V192.78c0,.686.238,1,1.584,1,1.4,0,1.637-.317,1.637-1V176.517h9.056c.554,0,.818-.106.818-1.188s-.238-1.188-.818-1.188Z" transform="translate(-75.4 -172.9)" fill="#fff"/>
        </g>
        <g id="Group_28" data-name="Group 28" transform="translate(30.203 45.648)">
          <path id="Path_324" data-name="Path 324" d="M215.117,187.382c1.267,0,1.452-.871,1.452-1.822s-.185-1.822-1.452-1.822H196.635v-3.247c0-1.162,1.69-1.848,4.541-1.848h4.2c1.241,0,1.426-.871,1.426-1.822S206.642,175,205.374,175h-4.3c-5.888,0-8.871,1.848-8.871,5.465v9.795c0,3.643,2.983,5.465,8.871,5.465h13.94c1.267,0,1.452-.924,1.452-1.822,0-.95-.185-1.822-1.452-1.822H201.176c-2.8,0-4.541-.713-4.541-1.848V187.3h18.481Z" transform="translate(-191.566 -174.446)" fill="#fff"/>
          <path id="Path_325" data-name="Path 325" d="M213.245,194.892H199.3c-4.33,0-9.5-1.056-9.5-6.1V179c0-2.772,1.637-6.1,9.5-6.1h4.3c1.346,0,2.033.818,2.033,2.429s-.686,2.429-2.033,2.429h-4.2c-2.693,0-3.934.634-3.934,1.214v2.614H213.35c1.373,0,2.059.818,2.059,2.429s-.686,2.429-2.059,2.429H195.5v2.3c0,.607,1.346,1.214,3.934,1.214h13.834c1.373,0,2.059.818,2.059,2.429S214.617,194.892,213.245,194.892ZM199.3,174.141c-5.544,0-8.264,1.584-8.264,4.858v9.795c0,3.274,2.693,4.858,8.264,4.858h13.94c.581,0,.818-.158.818-1.188,0-1.082-.238-1.188-.818-1.188H199.41c-3.247,0-5.175-.924-5.175-2.482V185.23H213.35c.554,0,.818-.106.818-1.188s-.238-1.188-.818-1.188H194.262V179c0-1.584,1.874-2.482,5.175-2.482h4.2c.528,0,.792-.106.792-1.188,0-1.056-.264-1.188-.792-1.188Z" transform="translate(-189.8 -172.9)" fill="#fff"/>
        </g>
        <g id="Group_29" data-name="Group 29" transform="translate(61.806 45.648)">
          <path id="Path_326" data-name="Path 326" d="M320.877,178.743h14.072c1.267,0,1.452-.871,1.452-1.822s-.185-1.822-1.452-1.822H320.771c-5.888,0-8.871,1.848-8.871,5.465v9.795c0,3.643,2.983,5.465,8.871,5.465h14.2c1.426,0,1.426-1.188,1.426-1.822,0-.871-.106-1.822-1.426-1.822h-14.1c-2.8,0-4.541-.713-4.541-1.848v-9.795C316.335,179.43,318.025,178.743,320.877,178.743Z" transform="translate(-311.266 -174.519)" fill="#fff"/>
          <path id="Path_327" data-name="Path 327" d="M333.209,194.892H319c-4.33,0-9.5-1.056-9.5-6.1V179c0-2.772,1.637-6.1,9.5-6.1h14.178c1.373,0,2.059.818,2.059,2.429s-.686,2.429-2.059,2.429H319.11c-2.693,0-3.934.634-3.934,1.214v9.795c0,.607,1.346,1.214,3.934,1.214h14.1c2.033,0,2.033,1.848,2.033,2.429C335.241,194.074,334.555,194.892,333.209,194.892ZM319,174.141c-5.544,0-8.264,1.584-8.264,4.858v9.795c0,3.274,2.693,4.858,8.264,4.858h14.2c.634,0,.792-.238.792-1.188,0-1.03-.185-1.188-.792-1.188h-14.1c-3.247,0-5.175-.924-5.175-2.482V179c0-1.584,1.874-2.482,5.175-2.482h14.072c.554,0,.818-.106.818-1.188s-.238-1.188-.818-1.188Z" transform="translate(-309.5 -172.9)" fill="#fff"/>
        </g>
        <g id="Group_30" data-name="Group 30" transform="translate(93.752 45.516)">
          <path id="Path_328" data-name="Path 328" d="M457.712,174.8c-1.162,0-2.244.185-2.244,1.611v7.208H437.462v-7.208c0-1.426-1.082-1.611-2.244-1.611s-2.218.185-2.218,1.611v17.742c0,1.426,1.056,1.611,2.218,1.611s2.244-.185,2.244-1.611v-6.917h18.006v6.917c0,1.426,1.082,1.611,2.244,1.611s2.218-.185,2.218-1.611V176.411C459.956,174.985,458.873,174.8,457.712,174.8Z" transform="translate(-432.34 -174.166)" fill="#fff"/>
          <path id="Path_329" data-name="Path 329" d="M455.872,194.63c-.713,0-2.878,0-2.878-2.244V186.1H436.229v6.284c0,2.244-2.165,2.244-2.878,2.244s-2.851,0-2.851-2.244V174.644c0-2.244,2.139-2.244,2.851-2.244s2.878,0,2.878,2.244v6.574h16.765v-6.574c0-2.244,2.165-2.244,2.878-2.244s2.851,0,2.851,2.244v17.742C458.723,194.63,456.585,194.63,455.872,194.63Zm-20.884-9.769h19.247v7.524c0,.686.238,1,1.637,1,1.373,0,1.584-.317,1.584-1V174.644c0-.686-.238-1-1.584-1-1.4,0-1.637.317-1.637,1v7.841H434.988v-7.841c0-.66-.238-1-1.637-1-1.373,0-1.584.317-1.584,1v17.742c0,.686.238,1,1.584,1,1.4,0,1.637-.317,1.637-1Z" transform="translate(-430.5 -172.4)" fill="#fff"/>
        </g>
      </g>
      <path id="Path_330" data-name="Path 330" d="M1020.872,147.4a4.951,4.951,0,0,0-4.858,3.96H942.46a2.746,2.746,0,1,0,0,1.69h73.528a4.965,4.965,0,0,0,9.874-.739A4.987,4.987,0,0,0,1020.872,147.4Z" transform="translate(-689.68 -108.484)" fill="#fff"/>
      <path id="Path_331" data-name="Path 331" d="M659.057,210.97a4.938,4.938,0,0,0-5.333,4.066h-20.2a1.775,1.775,0,0,1-1.32-.554l-6.812-6.812a1.257,1.257,0,0,0-.9-.37h-14.2a1.239,1.239,0,0,0-1.241,1.241v5.36a2.753,2.753,0,0,0,.686,5.386,2.762,2.762,0,0,0,2.033-.766,2.717,2.717,0,0,0,.845-1.98,2.8,2.8,0,0,0-1.848-2.614v-4.779a.17.17,0,0,1,.158-.158h13.042a.819.819,0,0,1,.581.238l6.812,6.812a2.293,2.293,0,0,0,1.637.66h20.725a4.981,4.981,0,0,0,4.884,4.092,5.057,5.057,0,0,0,3.617-1.558,4.8,4.8,0,0,0,1.32-3.7A4.968,4.968,0,0,0,659.057,210.97Z" transform="translate(-446.803 -152.57)" fill="#fff"/>
      <path id="Path_332" data-name="Path 332" d="M801.053,186.165a5.014,5.014,0,0,0-5.36,3.907H752.052a.819.819,0,0,1-.581-.238l-13.94-13.94a1.257,1.257,0,0,0-.9-.37H713.981a2.758,2.758,0,0,0-2.693-1.927,2.762,2.762,0,0,0-1.927,4.673,2.717,2.717,0,0,0,1.98.845,2.761,2.761,0,0,0,2.614-1.875h22.124a.819.819,0,0,1,.581.238l13.94,13.94a1.257,1.257,0,0,0,.9.37h44.117a4.932,4.932,0,0,0,4.911,4.277,5.057,5.057,0,0,0,3.617-1.558,4.8,4.8,0,0,0,1.32-3.7A4.949,4.949,0,0,0,801.053,186.165Z" transform="translate(-521.502 -127.765)" fill="#fff"/>
      <path id="Path_333" data-name="Path 333" d="M303.19,130.788a2.782,2.782,0,0,0-2.64,1.927H242.282a1,1,0,0,1-.739-.317l-18.56-18.56a2.293,2.293,0,0,0-1.637-.66H9.816a4.92,4.92,0,0,0-5.333-4.224,5,5,0,0,0-4.515,4.62,4.934,4.934,0,0,0,4.171,5.2,4.914,4.914,0,0,0,5.6-3.881H220.791a1.775,1.775,0,0,1,1.32.554l18.666,18.666a1.059,1.059,0,0,0,.739.317h59.007a2.751,2.751,0,0,0,5.333-.475A2.7,2.7,0,0,0,303.19,130.788Z" transform="translate(0.043 -80.176)" fill="#fff"/>
    </g>
  </g>
  <rect id="Rectangle_165" data-name="Rectangle 165" width="340" height="92" fill="none"/>
</svg>
