<svg id="Component_9_1" data-name="Component 9 – 1" xmlns="http://www.w3.org/2000/svg" width="340.049" height="92" viewBox="0 0 340.049 92">
  <g id="Component_8_1" data-name="Component 8 – 1" transform="translate(0 9.219)">
    <g id="g14" transform="translate(60.884)">
      <path id="path16" d="M-10.125-5.062v-14.6H-39.338v14.6h6.14V38.764h-6.14V53.377h29.213V38.764h-6.136V-5.062Z" transform="translate(39.338 19.667)" fill="#fff"/>
    </g>
    <path id="path26" d="M264.243,338.188H249.634V323.579h14.609Zm0,29.213H249.634V352.8h14.609Zm9.078-23.143a18.853,18.853,0,0,0-9.241-35.287H226.561v14.609h6.132V367.4h-6.132v14.613H264.08c12.4,0,20.077-8.861,20.077-19.941a20.061,20.061,0,0,0-10.836-17.814" transform="translate(-226.561 -308.969)" fill="#fff"/>
  </g>
  <rect id="Rectangle_168" data-name="Rectangle 168" width="340" height="92" transform="translate(0.049)" fill="none"/>
</svg>
