<svg id="Component_13_1" data-name="Component 13 – 1" xmlns="http://www.w3.org/2000/svg" width="340" height="92" viewBox="0 0 340 92">
  <g id="Group_33" data-name="Group 33" transform="translate(-242.479 -2.537)">
    <path id="Path_301" data-name="Path 301" d="M327.95,18.913c-3.318-2.509-5.179-.647-6.231,1.133-1.78,2.994-6.474,11.653-10.682,18.288-5.584,8.821-7.445,10.52-7.445,10.52s0-16.913-.243-18.369c-.728-4.855-3.237-4.37-5.1-4.046-4.936.809-4.855,2.67-5.1,4.289-.566,4.046.243,21.444.486,23.629.162,2.185-.162,9.873,4.289,10.52,3.318.486,6.555-2.59,8.982-5.26A145.149,145.149,0,0,0,317.754,45.7c6.312-8.9,10.763-16.265,12.381-19.179,1.538-2.913,1.457-4.855-2.185-7.607" transform="translate(-9.577 -2.201)" fill="#fff"/>
    <path id="Path_302" data-name="Path 302" d="M355.938,31.118c3.156-3.156,6.878-5.5,8.659-4.532,2.023,1.133-.324,5.907-4.208,8.821-2.509,1.861-6.878,4.693-11.329,4.693a40.267,40.267,0,0,1,6.878-8.982m63.2-12.948c-2.913-2.913-4.936-1.214-6.312.324-.243.324-6.878,6.959-13.919,14.971-5.422,6.312-10.2,12.138-10.2,12.138a64.059,64.059,0,0,1,.4-8.9c.324-2.832,1.295-8.335,1.538-10.034,1.376-8.821-4.046-9.144-6.069-9.306-2.1-.162-3.156.971-3.722,3.722-.566,2.428-3.722,16.023-2.509,29.941.243,2.509.728,5.1.728,5.26l-1.214,1.78a50.025,50.025,0,0,1-19.988-11.491,38.573,38.573,0,0,0,8.173-3.722c3.4-2.1,9.953-7.2,9.225-16.265-.566-7.688-8.659-11.167-11.572-10.6-2.67.566-7.445,3.884-11.815,7.849-.324-2.1-.324-4.451-2.509-4.693a8.737,8.737,0,0,0-4.693,1.295,8.495,8.495,0,0,0-3.4,3.237l-5.017,11.491a.977.977,0,0,1-.728.566,5.082,5.082,0,0,0-3.722,3.075,4.316,4.316,0,0,0,.89,4.613c-.971,2.67-3.642,8.9-3.642,8.9-3.237,7.607-3.075,10.277-1.861,11.9.566.809,2.67,2.023,5.179,2.428,1.861.324,3.318-.809,4.936-3.318,2.347-3.722,7.04-13.514,7.04-13.514s9.225,10.115,27.837,16.832c0,0-9.873,13.676-11.329,21.2,0,0-.728,4.936,5.907,4.936a12.008,12.008,0,0,0,5.988-1.538,3.289,3.289,0,0,0,1.538-1.942,1.543,1.543,0,0,0-.162-1.052c-.162-.324-.486-.486-.647-.728a1.079,1.079,0,0,1-.081-1.295c3.642-10.682,18.531-28.808,21.687-32.774C403.44,43.014,418.9,26.83,420.029,25.535c2.023-2.59,2.347-4.127-.89-7.364" transform="translate(-15.959 -1.864)" fill="#fff"/>
    <path id="Path_303" data-name="Path 303" d="M279.288,50.214c-.89-.486-2.023-.162-3.8.324-2.913.809-10.2,3.561-12.7,4.37-1.052.324-2.994.809-3.8-.162-1.295-1.618.566-6.717,1.7-9.549s2.832-5.1,8.173-6.636c1.942-.566,5.179-1.618,6.474-2.023a5.9,5.9,0,0,0,4.127-4.693c.89-3.722-1.861-4.289-4.451-4.936-3.642-1.052-5.988-1.133-4.37-4.693a3.769,3.769,0,0,1,2.67-2.509c1.457-.4,13.757-2.347,18.693-3.237,2.751-.486,3.642-1.942,4.855-4.37,2.509-5.179-.647-5.5-3.156-5.26-5.665.486-14.809,2.185-18.693,2.751-2.1.324-.728-3.237-3.156-3.4A16.72,16.72,0,0,0,261.4,9.105c-1.538,1.214-2.266,4.855-2.266,4.855l-4.693,16.346c-.4,1.861-.971,3.722-2.347,4.532-3.237,1.942-9.873,2.1-9.306,9.306,0,0,.162,3.561,2.994,10.682a8.063,8.063,0,0,1,.486,4.774c-.243,1.376-.486,2.832-.728,4.208-.243,1.214-.809,3.8,0,4.774s2.347.89,4.208.647a109.4,109.4,0,0,0,23.063-6.878,19.659,19.659,0,0,0,4.208-2.428c2.913-2.266,3.4-6.959,3.4-6.959a2.566,2.566,0,0,0-1.133-2.751" transform="translate(0 0)" fill="#fff"/>
  </g>
  <rect id="Rectangle_166" data-name="Rectangle 166" width="340" height="92" fill="none"/>
</svg>
