<svg id="Component_11_1" data-name="Component 11 – 1" xmlns="http://www.w3.org/2000/svg" width="340" height="92" viewBox="0 0 340 92">
  <g id="Group_41" data-name="Group 41" transform="translate(-65.539 167.553)">
    <g id="Component_7_1" data-name="Component 7 – 1" transform="translate(66 -164.056)">
      <path id="Path_368" data-name="Path 368" d="M62.7-123.15h5.982c-1.251-6.731.379-9.906,5.987-9.906H99.307V-139.1H74.519C64.8-139.1,60.479-133.738,62.7-123.15Z" transform="translate(-30.325 152.9)" fill="#fff"/>
      <path id="Path_369" data-name="Path 369" d="M121.694-42.028h6.686v-44.08h-6.686Z" transform="translate(-59.398 127.034)" fill="#fff"/>
      <path id="Path_370" data-name="Path 370" d="M92.4-42.028h6.634v-44.08H92.4Z" transform="translate(-45.1 127.034)" fill="#fff"/>
      <path id="Path_371" data-name="Path 371" d="M92.389-106.73h21.687v-6.046H92.389Z" transform="translate(-45.094 140.051)" fill="#fff"/>
      <path id="Path_372" data-name="Path 372" d="M30.137-51.981C22.95-52.243,18.1-55.559,18.1-62.425c0-5.434,4.038-10.163,9.472-10.163,3.28,0,6.348.7,8.558,3.348v-6.635A13.739,13.739,0,0,0,27.7-78.606c-8.428,0-15.266,6.244-15.266,15.6a15.766,15.766,0,0,0,3.657,10.449c-6.5-2.907-10.257-8.729-10.257-16.612,0-9.517,8.156-17.19,17.674-17.19a17.823,17.823,0,0,1,4.762.577V-92.52a23.017,23.017,0,0,0-4.488-.429A23.811,23.811,0,0,0,0-69.165C0-54.372,10.921-45.386,23.314-45.386l15.2.018v-6.547s-4.525-.034-8.377-.061Z" transform="translate(0 130.373)" fill="#fff"/>
      <path id="Path_373" data-name="Path 373" d="M1.005-166.056v40.164a29.553,29.553,0,0,1,5.832-4.993v-29.3H69.472v-5.875Z" transform="translate(-0.49 166.056)" fill="#fff"/>
    </g>
  </g>
  <rect id="Rectangle_170" data-name="Rectangle 170" width="340" height="92" fill="none"/>
</svg>
