<svg id="Component_14_1" data-name="Component 14 – 1" xmlns="http://www.w3.org/2000/svg" width="340" height="92" viewBox="0 0 340 92">
  <g id="Group_34" data-name="Group 34" transform="translate(0.28 14.46)">
    <g id="Group_11" data-name="Group 11" transform="translate(-0.001 3.999)">
      <path id="Path_294" data-name="Path 294" d="M38.854,11.535H33.276c-1.745,0-1.96.216-3.984,2.253C28.275,14.812,11.48,31.727,11.48,31.727V3.5A1.323,1.323,0,0,0,10.01,2.028H1.471A1.325,1.325,0,0,0,0,3.5v3.8A1.326,1.326,0,0,0,1.471,8.769H4.595V43.588H1.487a1.323,1.323,0,0,0-1.47,1.467v3.8a1.336,1.336,0,0,0,1.47,1.488H14.548a1.327,1.327,0,0,0,1.475-1.47v-3.8a1.333,1.333,0,0,0-1.475-1.482H11.48V40.773l6.689-6.794L29.943,48.372c1.548,1.968,1.548,1.968,3.815,1.968h5.086a1.323,1.323,0,0,0,1.466-1.47v-3.8A1.322,1.322,0,0,0,38.843,43.6H34.649L22.936,29.145,33.641,18.291h5.213a1.284,1.284,0,0,0,1.471-1.414V13.01A1.328,1.328,0,0,0,38.854,11.535Z" transform="translate(0.001 -2.028)" fill="#fff" fill-rule="evenodd"/>
    </g>
    <path id="Path_295" data-name="Path 295" d="M63.436,39.318H60.343V22.71c0-9.887-6.227-16.276-15.859-16.276A15.741,15.741,0,0,0,33.4,10.5V8.742a1.326,1.326,0,0,0-1.469-1.473H23.507A1.316,1.316,0,0,0,22.034,8.73v3.794a1.334,1.334,0,0,0,1.472,1.482H26.6V39.318h-3.09a1.324,1.324,0,0,0-1.472,1.468v3.8a1.326,1.326,0,0,0,1.472,1.47H36.5a1.325,1.325,0,0,0,1.47-1.47v-3.8a1.322,1.322,0,0,0-1.47-1.468H33.4V23.895c0-6.334,4.454-10.934,10.586-10.934,5.971,0,9.539,3.876,9.539,10.377v15.98H50.438a1.326,1.326,0,0,0-1.477,1.468v3.8a1.328,1.328,0,0,0,1.477,1.47h13a1.325,1.325,0,0,0,1.471-1.47v-3.8A1.323,1.323,0,0,0,63.436,39.318Z" transform="translate(21.419 6.255)" fill="#fff" fill-rule="evenodd"/>
    <g id="Group_12" data-name="Group 12" transform="translate(86.116 12.749)">
      <path id="Path_296" data-name="Path 296" d="M63.512,40.193c-7.153,0-12.759-6-12.759-13.666s5.43-13.451,12.624-13.451,12.831,6,12.831,13.659S70.751,40.193,63.512,40.193Zm0-33.728c-11.127,0-19.844,8.907-19.844,20.27A19.679,19.679,0,0,0,63.377,46.8,19.883,19.883,0,0,0,83.3,26.527,19.713,19.713,0,0,0,63.512,6.465Z" transform="translate(-43.667 -6.465)" fill="#fff" fill-rule="evenodd"/>
    </g>
    <path id="Path_297" data-name="Path 297" d="M122.063,6.891H108.715a1.328,1.328,0,0,0-1.473,1.473v3.795a1.326,1.326,0,0,0,1.473,1.469h3l-6.36,20.557-9-26.192a1.736,1.736,0,0,0-1.634-1.17H92.058a1.733,1.733,0,0,0-1.641,1.17l-8.912,26.18L75.141,13.628h3a1.324,1.324,0,0,0,1.469-1.469V8.364a1.326,1.326,0,0,0-1.469-1.473h-13.5a1.33,1.33,0,0,0-1.477,1.473v3.795a1.327,1.327,0,0,0,1.477,1.469h3.17L78.4,44.684a1.733,1.733,0,0,0,1.621,1.14h2.874a1.723,1.723,0,0,0,1.63-1.171L93.375,19.2l8.809,25.449a1.722,1.722,0,0,0,1.634,1.171H106.7a1.728,1.728,0,0,0,1.618-1.136L118.9,13.628h3.166a1.328,1.328,0,0,0,1.479-1.469V8.364A1.33,1.33,0,0,0,122.063,6.891Z" transform="translate(61.407 6.633)" fill="#fff" fill-rule="evenodd"/>
    <g id="Group_13" data-name="Group 13" transform="translate(204.896 3.982)">
      <path id="Path_298" data-name="Path 298" d="M131.566,30.624h-3.741a1.326,1.326,0,0,0-1.475,1.469v7.189a4.838,4.838,0,0,1-4.707,5.03c-3.7,0-5.277-1.539-5.277-5.137V18.3h9.03a1.327,1.327,0,0,0,1.475-1.469v-3.8a1.329,1.329,0,0,0-1.475-1.473h-9.03V3.492a1.326,1.326,0,0,0-1.471-1.473h-3.932a1.33,1.33,0,0,0-1.479,1.473v8.068h-4.112a1.328,1.328,0,0,0-1.473,1.473v3.8a1.327,1.327,0,0,0,1.473,1.469h4.112V39.52c0,6.959,4.552,11.456,11.592,11.456,7.269,0,11.963-4.352,11.963-11.089V32.093A1.323,1.323,0,0,0,131.566,30.624Z" transform="translate(-103.898 -2.019)" fill="#fff" fill-rule="evenodd"/>
    </g>
    <path id="Path_299" data-name="Path 299" d="M111.024,38.907h-3.09V8.331a1.329,1.329,0,0,0-1.477-1.473h-8.5a1.327,1.327,0,0,0-1.473,1.473v3.795A1.325,1.325,0,0,0,97.955,13.6h3.1V38.907H95.432a1.323,1.323,0,0,0-1.471,1.468v3.8a1.326,1.326,0,0,0,1.471,1.47h15.592a1.329,1.329,0,0,0,1.477-1.47v-3.8A1.326,1.326,0,0,0,111.024,38.907Z" transform="translate(91.337 6.666)" fill="#fff" fill-rule="evenodd"/>
    <g id="Group_14" data-name="Group 14" transform="translate(191.432)">
      <path id="Path_300" data-name="Path 300" d="M101.382,8.624a4.312,4.312,0,1,0-4.311-4.312A4.312,4.312,0,0,0,101.382,8.624Z" transform="translate(-97.071)" fill="#fff" fill-rule="evenodd"/>
    </g>
  </g>
  <rect id="Rectangle_167" data-name="Rectangle 167" width="340" height="92" fill="none"/>
</svg>
