<svg id="Component_10_1" data-name="Component 10 – 1" xmlns="http://www.w3.org/2000/svg" width="340.215" height="92" viewBox="0 0 340.215 92">
  <g id="Group_42" data-name="Group 42">
    <g id="Group_37" data-name="Group 37" transform="translate(3.768 3.638)">
      <g id="Group_35" data-name="Group 35">
        <path id="Path_334" data-name="Path 334" d="M21.518,42.682a11.655,11.655,0,0,0-2.859-.26,1.389,1.389,0,0,0-.39.65v.26c-.13.13-.26,0-.26-.13a6.522,6.522,0,0,0,.26-1.559c.13-.52.13-.91.26-1.429.13-.13.26,0,.39,0v.39c0,.39,0,.65.26.78a12.039,12.039,0,0,0,2.729.65l1.559.26a4.787,4.787,0,0,1,2.989,1.559,3.733,3.733,0,0,1,.52,2.729,3.682,3.682,0,0,1-1.169,2.339c-.65.65-1.689.78-3.379.52l-3.119-.52c-1.429-.26-1.689-.26-1.819.52l-.13.39c-.13.13-.26,0-.26-.13.13-.65.26-1.169.39-1.689s.13-1.04.26-1.689c0-.13.26,0,.39,0v.39c-.13.78.13.91,1.559,1.04l2.859.52c2.209.39,3.638,0,4.028-2.079.39-1.949-1.04-2.989-3.119-3.249Z" transform="translate(-17.1 -10.066)" fill="#fff"/>
        <path id="Path_335" data-name="Path 335" d="M29.406,34.688c.39.26,1.819,1.04,2.079,1.169a.18.18,0,0,1,0,.26,18.978,18.978,0,0,0-2.6.52l-4.808,1.04c-.52.13-1.949.39-2.339.52h0a7.7,7.7,0,0,0,.78.52l2.6,1.429a11.459,11.459,0,0,0,2.6,1.169c.13,0,.39-.26.52-.52l.26-.39a.454.454,0,0,1,.26.13c-.26.52-.52.91-.78,1.429l-.65,1.3c-.13,0-.26,0-.26-.13l.13-.39a.58.58,0,0,0,0-.65c-.39-.39-1.819-1.169-2.339-1.559l-3.379-1.949a3.058,3.058,0,0,0-1.04-.26,1.3,1.3,0,0,0-.65.52l-.13.13a.454.454,0,0,1-.26-.13,8.266,8.266,0,0,1,.78-1.3.985.985,0,0,0,.26-.52,17.572,17.572,0,0,0,3.768-.52l1.949-.39a30.3,30.3,0,0,0,3.249-.78h0c0-.13-.26-.13-.52-.39l-2.6-1.429a11.459,11.459,0,0,0-2.6-1.169c-.13,0-.26.13-.65.65l-.26.26a.454.454,0,0,1-.26-.13A7.761,7.761,0,0,0,23.3,31.7l.65-1.3c.13,0,.26,0,.26.13l-.13.13c0,.52,0,.78.13.91a10.473,10.473,0,0,0,2.339,1.559Z" transform="translate(-16.411 -12.988)" fill="#fff"/>
        <path id="Path_336" data-name="Path 336" d="M27.539,29.119c-1.04-1.04-1.169-1.169-1.819-.65l-.26.26a.279.279,0,0,1-.26-.26L26.369,27.3c.39-.39.65-.78,1.169-1.3a.279.279,0,0,1,.26.26l-.26.26c-.52.65-.39.78.65,1.819L31.7,31.718c1.04,1.04,1.169,1.169,1.819.65l.26-.26a.279.279,0,0,1,.26.26l-1.169,1.169c-.39.39-.65.78-1.169,1.3a.279.279,0,0,1-.26-.26l.26-.26c.52-.65.39-.78-.65-1.819Z" transform="translate(-14.675 -14.305)" fill="#fff"/>
        <path id="Path_337" data-name="Path 337" d="M31.162,25.558c-.65-.52-1.04-.65-1.559-.39l-.26.13c-.13,0-.26-.13-.13-.26a3.068,3.068,0,0,0,1.169-.78c.52-.26.91-.65,1.429-.91a.279.279,0,0,1,.26.26l-.13.13c-.39.39-.39.52-.39.65a12.151,12.151,0,0,0,1.559,1.3c1.429,1.04,2.729,1.949,4.158,2.989-.13-1.04-.39-2.469-.52-3.249-.13-1.04-.39-2.6-.52-3.249,0-.26-.13-.39-.13-.52s-.26-.13-.65.13l-.26.13c-.13,0-.26-.26-.13-.26a3.068,3.068,0,0,0,1.169-.78,7.207,7.207,0,0,0,1.04-.78.279.279,0,0,1,.26.26l-.39.26a.926.926,0,0,0-.39.78,23.453,23.453,0,0,0,.39,3.508l.26,1.819c.26,1.3.52,2.989.65,3.768a.127.127,0,0,1-.13.13.127.127,0,0,0-.13.13,16.232,16.232,0,0,0-1.559-1.169Z" transform="translate(-13.489 -16.072)" fill="#fff"/>
        <path id="Path_338" data-name="Path 338" d="M39.889,20.979c-.39-1.3-.52-1.559-1.3-1.429h-.26c-.13,0-.13-.26-.13-.39l1.559-.39,2.469-.65a10.593,10.593,0,0,1,1.819-.52,11.6,11.6,0,0,1,.65,1.689c0,.13-.26.13-.26.13-.39-.52-.65-1.04-1.3-.91a7.479,7.479,0,0,0-1.3.26l-.91.26c-.39.13-.39.13-.26.65l.78,2.6c.13.39.13.39.52.26l.78-.26a2.848,2.848,0,0,0,1.04-.39c.13-.13.26-.26.13-.52v-.52c0-.13.26-.13.39-.13a11.255,11.255,0,0,1,.26,1.3,7,7,0,0,1,.39,1.3c0,.13-.26.13-.39.13l-.13-.52c-.13-.26-.26-.39-.52-.39a5.845,5.845,0,0,0-1.04.26l-.78.26c-.39.13-.39.13-.39.52l.52,1.819c.26.65.39,1.169.65,1.3s.52.13,1.689-.13c1.04-.26,1.429-.39,1.559-.65a3.056,3.056,0,0,0,.52-1.559.244.244,0,0,1,.39,0,9.2,9.2,0,0,1-.13,1.949c-1.169.26-2.339.65-3.508.91l-1.169.39c-.52.13-1.04.26-1.819.52-.13,0-.13-.26-.13-.26l.39-.13c.78-.26.78-.52.39-1.819Z" transform="translate(-10.782 -16.82)" fill="#fff"/>
        <path id="Path_339" data-name="Path 339" d="M48.092,19.079c0-1.3,0-1.559-.65-1.559h-.39a.244.244,0,0,1,0-.39c.78,0,1.689-.13,2.989-.13a5.178,5.178,0,0,1,2.209.39,2.09,2.09,0,0,1,1.169,1.949,2.436,2.436,0,0,1-1.689,2.209c-.13.13,0,.26.13.39a13.069,13.069,0,0,0,2.729,3.638,1.18,1.18,0,0,0,.91.39c.13,0,.13.13,0,.13s-.39.13-.65,0c-1.169,0-1.819-.39-2.859-1.689-.39-.52-.91-1.429-1.3-2.079a1.012,1.012,0,0,0-.91-.39c-.65,0-.65,0-.65.26v1.689c0,1.429,0,1.559.78,1.689h.26c.13.13,0,.26,0,.39H46.922c-.13,0-.13-.26,0-.39h.39c.78-.13.78-.26.78-1.689Zm1.04,1.949v.39a2.249,2.249,0,0,0,.91.13,1.86,1.86,0,0,0,1.429-.39,1.663,1.663,0,0,0,.78-1.559,2.01,2.01,0,0,0-2.209-2.079c-.91,0-.91,0-.91.39Z" transform="translate(-8.199 -17)" fill="#fff"/>
        <path id="Path_340" data-name="Path 340" d="M57.531,27.337a3.818,3.818,0,0,1-1.819-1.169,3.678,3.678,0,0,1,.26-1.949c.13-.13.26,0,.39,0a2.4,2.4,0,0,0,1.559,2.6A1.55,1.55,0,0,0,60,25.778a2.235,2.235,0,0,0-.52-2.209L58.441,22.4a2.784,2.784,0,0,1-.65-2.729c.39-1.3,1.689-1.949,3.379-1.429a10.3,10.3,0,0,1,1.169.52c.13.13.26.13.39.26a8.943,8.943,0,0,1-.26,1.689h-.39a1.824,1.824,0,0,0-1.3-2.079,1.375,1.375,0,0,0-1.949.91,2.035,2.035,0,0,0,.65,1.949l.78,1.04a3.085,3.085,0,0,1,.78,2.989A2.389,2.389,0,0,1,57.531,27.337Z" transform="translate(-5.554 -16.682)" fill="#fff"/>
        <path id="Path_341" data-name="Path 341" d="M66.418,23.569c.78-1.169.91-1.429.26-1.949l-.26-.26a.279.279,0,0,1,.26-.26,8.74,8.74,0,0,0,1.429.91,8.74,8.74,0,0,1,1.429.91c0,.13,0,.26-.13.26l-.26-.13c-.78-.39-.91-.13-1.559,1.04l-2.6,4.158c-.78,1.169-.78,1.429-.13,1.949l.26.26a.279.279,0,0,1-.26.26,8.74,8.74,0,0,0-1.429-.91A8.74,8.74,0,0,1,62,28.9c0-.13,0-.26.13-.26l.26.13c.78.39.91.13,1.559-1.04Z" transform="translate(-3.655 -15.772)" fill="#fff"/>
        <path id="Path_342" data-name="Path 342" d="M70.619,33.286c-1.04.91-1.17,1.169-.65,1.819l.26.39a.279.279,0,0,1-.26.26,13.01,13.01,0,0,0-1.169-1.3,12.115,12.115,0,0,0-1.3-1.3.279.279,0,0,1,.26-.26l.39.39c.52.52.78.39,1.819-.52l4.418-4.158c.26-.26.26-.26,0-.65l-.52-.52a3.685,3.685,0,0,0-1.429-1.04c-.39,0-.78.13-1.169.13a.249.249,0,0,1-.13-.39,6.078,6.078,0,0,0,1.819-1.04l.13.13c-.26.39,0,.65.52,1.169l3.768,4.028c.52.52.65.65,1.04.52.13,0,.13.13.13.26a5.829,5.829,0,0,0-1.689,1.3.279.279,0,0,1-.26-.26,1.651,1.651,0,0,0,.52-.91c0-.39-.26-.78-.78-1.429l-.65-.65c-.26-.26-.26-.26-.65,0Z" transform="translate(-2.008 -14.575)" fill="#fff"/>
        <path id="Path_343" data-name="Path 343" d="M76.658,39.441c.26-.26.26-.26.13-.65l-.91-1.819c-.13-.26-.26-.39-.52-.39l-1.559.13c-.65.13-1.04.13-1.169.26s-.13.13-.13.52l.13.39c0,.13-.26.26-.26.13-.13-.39-.26-.65-.52-1.3a5.267,5.267,0,0,0-.65-1.169c0-.13.26-.26.26-.13l.26.39a.722.722,0,0,0,.91.39c.65,0,1.689-.13,3.249-.26l3.9-.26a1.243,1.243,0,0,0,.91-.26,1.123,1.123,0,0,0,.78.39v.26c-.52.39-.91.91-1.429,1.3l-3.9,4.158c-.91.91-1.04,1.169-.78,1.689l.13.39c0,.13-.26.13-.26.13-.26-.52-.39-.91-.65-1.559s-.52-1.04-.65-1.429c0-.13.13-.26.26-.13l.26.39q.195.39.39.39c.13-.13.39-.26.52-.52Zm0-2.989c-.39,0-.39,0-.13.39l.78,1.559c.13.39.26.39.52.13l1.689-1.559.65-.65h-.91Z" transform="translate(-0.901 -11.503)" fill="#fff"/>
        <path id="Path_344" data-name="Path 344" d="M74.808,46.352a8.124,8.124,0,0,1,.13-2.209,4.879,4.879,0,0,1,1.819-.65c.13,0,.13.26.13.26a2.419,2.419,0,0,0-1.689,2.6,1.513,1.513,0,0,0,1.819,1.429,1.843,1.843,0,0,0,1.689-1.429l.65-1.429A2.946,2.946,0,0,1,81.436,43.1c1.3-.13,2.469.65,2.729,2.469v1.819a10.835,10.835,0,0,1-1.559.52c-.13,0-.13-.26-.13-.39a1.855,1.855,0,0,0,1.3-2.079,1.577,1.577,0,0,0-1.689-1.429,1.983,1.983,0,0,0-1.429,1.429l-.65,1.429a3.19,3.19,0,0,1-2.339,2.079C76.238,49.081,75.068,48.171,74.808,46.352Z" transform="translate(0.169 -9.188)" fill="#fff"/>
      </g>
      <g id="Group_36" data-name="Group 36" transform="translate(1.169 50.808)">
        <path id="Path_345" data-name="Path 345" d="M25.277,57.659c.91-.39,1.169-.52,1.04-1.04l-.13-.39c0-.13.26-.13.26-.13q.39.975,1.169,2.729a4.944,4.944,0,0,1,.39,2.339,1.77,1.77,0,0,1-1.3,1.559,1.851,1.851,0,0,1-2.209-.65c-.13,0-.13.13-.13.26a2.188,2.188,0,0,1-1.559,2.469c-1.429.52-2.859-.13-3.768-2.469-.13-.39-.39-1.04-.52-1.559A9.87,9.87,0,0,1,18,59.349c0-.13.26-.13.26-.13l.13.26c.39.65.52.65,1.819.13Zm-4.288,2.729a2.21,2.21,0,0,0-1.3.78,1.243,1.243,0,0,0,0,1.169c.39,1.169,1.3,1.819,2.469,1.3,1.04-.39,1.949-1.3,1.3-3.379-.26-.65-.39-.65-.65-.65Zm2.989-1.169c-.39.13-.39.13-.13.78.52,1.3,1.169,1.819,2.339,1.429a1.811,1.811,0,0,0,1.04-2.6l-.26-.52c-.13-.13-.13-.13-.39,0Z" transform="translate(-18 -56.1)" fill="#fff"/>
        <path id="Path_346" data-name="Path 346" d="M28.3,65.062c1.169-.91,1.3-1.04.91-1.689l-.13-.13c0-.13.26-.26.26-.13.39.52.65.91.91,1.3l1.559,2.079c.52.65,1.04,1.3,1.169,1.429a12.115,12.115,0,0,1-1.3,1.3.279.279,0,0,1-.26-.26c.39-.52.65-.91.39-1.559a8.814,8.814,0,0,0-.78-1.169l-.65-.78c-.26-.39-.26-.26-.65,0l-2.079,1.429c-.26.26-.26.26,0,.65l.52.65a7.778,7.778,0,0,0,.78.91c.13.13.26.13.52,0l.52-.26a.279.279,0,0,1,.26.26,9.121,9.121,0,0,1-1.169.78c-.39.26-.78.65-1.04.78a.279.279,0,0,1-.26-.26l.39-.39a.571.571,0,0,0,.13-.65c-.13-.13-.26-.52-.52-.91l-.52-.65c-.26-.39-.26-.39-.52-.13L25.179,68.83a3.819,3.819,0,0,0-1.04,1.04c0,.26,0,.52.78,1.559.65.78.91,1.169,1.169,1.3a3.519,3.519,0,0,0,1.689,0c.13,0,.13.26.13.39a8.584,8.584,0,0,1-1.949.65c-.65-1.04-1.429-1.949-2.209-2.989l-.78-1.04c-.39-.52-.65-.78-1.169-1.429a.279.279,0,0,1,.26-.26l.26.39c.52.52.78.52,1.819-.39Z" transform="translate(-16.862 -54.016)" fill="#fff"/>
        <path id="Path_347" data-name="Path 347" d="M33.1,70.909c.78-1.04.91-1.3.52-1.689l-.39-.26a.279.279,0,0,1,.26-.26,28.842,28.842,0,0,1,2.469,1.689,4.76,4.76,0,0,1,1.559,1.689,1.8,1.8,0,0,1-.26,2.209,2.368,2.368,0,0,1-2.729.78c-.13,0-.13.13-.13.26-.13,2.079-.26,3.379.13,4.548a1.651,1.651,0,0,0,.52.91.127.127,0,0,1-.13.13c-.13,0-.26-.13-.52-.26a3.153,3.153,0,0,1-1.3-2.989c0-.65.13-1.689.13-2.469a.981.981,0,0,0-.52-.91c-.52-.39-.52-.39-.65-.13l-1.04,1.429c-.91,1.169-.91,1.3-.39,1.819l.26.26a.279.279,0,0,1-.26.26,11.363,11.363,0,0,1-1.3-1.04,8.738,8.738,0,0,0-1.429-.91c0-.13,0-.26.13-.26l.26.13c.65.39.78.26,1.689-.91Zm-.26,2.209c-.13.26-.26.26-.26.39a2.086,2.086,0,0,0,.78.65,2.744,2.744,0,0,0,1.3.52,2.009,2.009,0,0,0,1.559-.91,2.041,2.041,0,0,0-.52-2.989c-.65-.52-.78-.52-.91-.13Z" transform="translate(-15.036 -52.327)" fill="#fff"/>
        <path id="Path_348" data-name="Path 348" d="M44.126,82.385c-.13.52-.13.91,0,1.04v.13a5.628,5.628,0,0,0-.65-.13,8.159,8.159,0,0,1-2.469-.39A5.822,5.822,0,0,1,37.5,80.306a4.642,4.642,0,0,1-.26-3.249,4.979,4.979,0,0,1,2.209-2.729A5.4,5.4,0,0,1,44,74.2a5.41,5.41,0,0,1,1.559.78,4.271,4.271,0,0,0,.78.39,16.884,16.884,0,0,0-.39,1.949c-.13.13-.26,0-.39-.13a2.471,2.471,0,0,0-2.079-2.729,3.658,3.658,0,0,0-4.808,2.6c-.78,2.469-.13,4.808,2.469,5.718a2.273,2.273,0,0,0,1.559.13,1.389,1.389,0,0,0,.39-.65l.13-.52c.39-1.04.39-1.169-.39-1.559l-.52-.26c-.13-.13,0-.26.13-.26.39.13,1.04.39,1.819.65.52.13.91.26,1.429.39.13.13,0,.26-.13.39H45.3c-.52-.13-.65.26-.91.91Z" transform="translate(-12.29 -50.809)" fill="#fff"/>
        <path id="Path_349" data-name="Path 349" d="M48.092,77.279c0-1.429,0-1.559-.78-1.689h-.26c-.13,0,0-.26,0-.39H53.03c.13.26.13,1.169.26,1.819,0,.13-.26.13-.39,0-.26-.65-.26-1.169-1.04-1.3a3.621,3.621,0,0,0-1.3-.13h-1.04c-.39,0-.39,0-.39.52v2.729c0,.39,0,.39.39.39h.78a2.565,2.565,0,0,0,1.169-.13c.13,0,.26-.13.39-.52l.13-.52a.244.244,0,0,1,.39,0v2.729c0,.13-.26.13-.39,0l-.13-.52c0-.26-.13-.39-.39-.52a7,7,0,0,0-1.04-.13h-.78c-.39,0-.39,0-.39.39v1.949c0,.78,0,1.169.26,1.429.13.13.39.26,1.689.26,1.04,0,1.429,0,1.689-.26a2.76,2.76,0,0,0,.91-1.3c.13-.13.26,0,.39.13a8.584,8.584,0,0,1-.65,1.949H46.922c-.13,0-.13-.26,0-.39h.39c.78-.13.91-.26.91-1.689Z" transform="translate(-9.369 -50.381)" fill="#fff"/>
        <path id="Path_350" data-name="Path 350" d="M64.368,75.938a12.541,12.541,0,0,1-.78-2.729c0-.13.26-.26.65-.52l.13-.13c0-.13,0-.26-.13-.26a8.959,8.959,0,0,0-1.3.52c-.52.13-.91.39-1.559.52-.13.13,0,.26.13.39h.26c.52-.13.78-.13.91,0a9.686,9.686,0,0,1,1.3,2.6l1.04,2.729a1.3,1.3,0,0,1,.13.52h0c-.78-.39-1.689-.91-2.989-1.559l-1.949-1.04a16.567,16.567,0,0,1-3.249-1.949c-.13.13-.39.13-.52.26a8.573,8.573,0,0,1-1.429.52c-.13.13,0,.26.13.39h.26a1.11,1.11,0,0,1,.91,0c.39.13.52.52.65.78l1.429,3.638a12.541,12.541,0,0,1,.78,2.729c0,.13-.13.26-.52.52l-.39.13c0,.13,0,.26.13.26a13.48,13.48,0,0,1,1.3-.52c.52-.13.91-.39,1.559-.52.13-.13,0-.26-.13-.39l-.39.13q-.585.195-.78,0a6.866,6.866,0,0,1-1.169-2.6l-1.04-2.729a3.306,3.306,0,0,1-.26-.91h0a16.759,16.759,0,0,1,2.079,1.169L63.719,80.1c1.559.91,2.079,1.169,2.339,1.3.13,0,.13-.13.13-.26-.13-.26-.78-1.819-.91-2.209Z" transform="translate(-6.933 -51.249)" fill="#fff"/>
        <path id="Path_351" data-name="Path 351" d="M71.928,76.936a5.6,5.6,0,0,1-1.949,1.04c-.26-.13-1.04-.78-1.559-1.169a.279.279,0,0,1,.26-.26,2.508,2.508,0,0,0,3.119,0,1.569,1.569,0,0,0,.26-2.339,1.984,1.984,0,0,0-2.079-.78l-1.559.13a2.652,2.652,0,0,1-2.6-.91,2.5,2.5,0,0,1,.65-3.638,4.558,4.558,0,0,1,1.04-.65c.13-.13.39-.13.39-.26a4.944,4.944,0,0,1,1.3,1.169.279.279,0,0,1-.26.26,1.923,1.923,0,0,0-2.469,0,1.431,1.431,0,0,0-.26,2.209,1.933,1.933,0,0,0,1.949.52l1.3-.13a2.946,2.946,0,0,1,2.989.91A2.56,2.56,0,0,1,71.928,76.936Z" transform="translate(-3.837 -52.507)" fill="#fff"/>
        <path id="Path_352" data-name="Path 352" d="M72.169,66.449c-1.17-.78-1.429-.91-1.949-.39l-.26.26a.279.279,0,0,1-.26-.26c.39-.52.65-.91,1.04-1.429.26-.39.52-.78.91-1.429a.454.454,0,0,1,.26.13l-.13.26c-.39.65-.26.91.91,1.689l3.9,2.859c1.17.78,1.3.91,1.949.26l.26-.26a.279.279,0,0,1,.26.26,11.363,11.363,0,0,1-1.04,1.3,8.739,8.739,0,0,0-.91,1.429c-.13,0-.26,0-.26-.13l.13-.26c.39-.65.26-.78-.91-1.689Z" transform="translate(-2.519 -53.974)" fill="#fff"/>
        <path id="Path_353" data-name="Path 353" d="M82.236,62.588a7.14,7.14,0,0,1-1.169,1.819,6.413,6.413,0,0,1-1.949-.39c-.13-.13,0-.26.13-.26a2.521,2.521,0,0,0,2.729-1.429,1.678,1.678,0,0,0-.91-2.209,1.894,1.894,0,0,0-2.209.39l-1.3.91a2.835,2.835,0,0,1-2.729.52,2.446,2.446,0,0,1-1.169-3.379,5.267,5.267,0,0,1,.65-1.169c.13-.13.26-.26.26-.39a4.486,4.486,0,0,1,1.689.39.477.477,0,0,1-.13.39,1.854,1.854,0,0,0-2.079,1.169,1.415,1.415,0,0,0,.91,2.079,1.99,1.99,0,0,0,1.949-.52l1.04-.78a2.772,2.772,0,0,1,2.989-.65C82.236,59.469,82.885,60.9,82.236,62.588Z" transform="translate(-1.411 -55.831)" fill="#fff"/>
      </g>
    </g>
    <path id="Path_354" data-name="Path 354" d="M60.2,14.2a46,46,0,1,0,46,46A45.919,45.919,0,0,0,60.2,14.2Zm0,90.7a44.7,44.7,0,1,1,44.7-44.7A44.7,44.7,0,0,1,60.2,104.9Z" transform="translate(-14.2 -14.2)" fill="#fff"/>
    <g id="Group_38" data-name="Group 38" transform="translate(24.559 62.072)">
      <path id="Path_355" data-name="Path 355" d="M58.449,66.947a6.257,6.257,0,0,0-1.949,2.6,15,15,0,0,0,6.107,2.079,25.432,25.432,0,0,0,3.9-2.6,14.083,14.083,0,0,1-3.119-1.3C61.958,66.817,60.138,65.517,58.449,66.947Z" transform="translate(-26.093 -60.669)" fill="#fff"/>
      <path id="Path_356" data-name="Path 356" d="M43.885,62.139a5.247,5.247,0,0,0-3.379.26c-2.859.91-7.407,5.977-7.407,5.977a29.124,29.124,0,0,0,4.418,3.508c1.3-1.559,4.548-5.328,7.667-5.328a6.125,6.125,0,0,1,3.9,1.559c.13-.13.26-.39.39-.52C47,66.168,43.885,62.139,43.885,62.139Z" transform="translate(-33.1 -61.969)" fill="#fff"/>
      <path id="Path_357" data-name="Path 357" d="M49.589,65.506A4.1,4.1,0,0,0,46.6,67.975c2.6,1.819,4.938,3.9,8.316,4.808a21.21,21.21,0,0,0,6.367,1.169,20.726,20.726,0,0,0,3.508-1.559,26.373,26.373,0,0,1-5.718-1.819C55.956,69.015,52.447,65.116,49.589,65.506Z" transform="translate(-29.058 -60.917)" fill="#fff"/>
    </g>
    <path id="Path_358" data-name="Path 358" d="M44.327,66.7c-3.9,0-5.458,3.249-6.627,4.678a31.235,31.235,0,0,0,24.04,2.989,19.04,19.04,0,0,1-5.718-1.3C51.734,71.248,47.186,66.7,44.327,66.7Z" transform="translate(-7.163 1.52)" fill="#fff"/>
    <path id="Path_359" data-name="Path 359" d="M66.765,65.45c-2.6-3.249-4.548-3.9-5.588-3.638s-.78,1.04-1.949,2.339A15.69,15.69,0,0,1,55.2,67.14c.39.39.91,1.04,1.04,1.169A6.9,6.9,0,0,1,60.528,66.1c2.729,0,3.508,2.209,7.147,3.508.78-.65,1.559-1.3,2.209-1.949C70.014,67.789,68.194,67.4,66.765,65.45Z" transform="translate(-1.923 0.041)" fill="#fff"/>
    <g id="Group_39" data-name="Group 39" transform="translate(32.59 16.893)">
      <path id="Path_360" data-name="Path 360" d="M65.425,49.16c-.13-.13,0-.39-.13-.52a6.447,6.447,0,0,1-.39-1.689c-.13-.39.26-.52.52-.65a1.423,1.423,0,0,0,0-1.04c-.13-.52-.91-.65-.91-1.3,0-.39-.26-.78-.26-1.3A11.373,11.373,0,0,1,64,40.584c-.13-.78-.13-1.559-.26-2.339a20.173,20.173,0,0,0-.52-2.729,6.4,6.4,0,0,0-.78-2.209c0-.52-.52-.91-.26-1.429a14.2,14.2,0,0,0,1.04-1.949c.26-.39.13-.91.26-1.429a3.533,3.533,0,0,0,0-1.169h-.13c-.13.65-.91.91-1.429,1.3a14.392,14.392,0,0,1-2.469.26c-.52,0-.91.52-1.559.13a6.335,6.335,0,0,0-.91-.39H55.159c-.91,0-1.559-.52-2.469-.39-1.169,0-2.079.52-3.249.39a4.228,4.228,0,0,0-2.859.52c-.26,0-.65-.26-1.04-.26-.91-.39-2.079.26-2.729-.39a1.8,1.8,0,0,1-.65-1.3c-.13.13-.26.26-.26.39a2.1,2.1,0,0,0-.39,1.169,3.741,3.741,0,0,0,.13,1.689c.13.91.78,1.689.65,2.6-.13.39-.39.91-.52,1.3-.39.52-.26,1.04-.39,1.689a6.859,6.859,0,0,0,0,3.249,20.356,20.356,0,0,0-.65,3.9,8.379,8.379,0,0,1-.39,2.6c-.52.52-.91.91-.78,1.689a1.94,1.94,0,0,0,.39.91,5.593,5.593,0,0,1,0,2.079c0,.52-.52.78-.65,1.169-.13.52.26.78.52,1.04.13.26.13.78.26,1.04.13.91.26,1.689.39,2.6.26,1.3.39,2.6.65,3.768a43.968,43.968,0,0,0,1.04,4.418,31.355,31.355,0,0,1,1.04,3.249,9.9,9.9,0,0,1,.78,2.6c0,.13,0,.26.13.26,0,.65-.52,1.04-.39,1.689,0,0,1.949,3.379,4.158,4.808a5.185,5.185,0,0,1,3.9-1.949c2.729,0,5.2,2.729,7.8,4.808.13-.26.39-.39.65-.65-.91-1.169-4.678-5.588-7.8-6.107,0,0,.26-.65,0-.91a1.563,1.563,0,0,1-.26-1.04c0-.13-.13-.52,0-.65.52.13.65.65.91,1.04h.13a.127.127,0,0,0,.13-.13c0-.52.65-.78.91-1.04.13,0,.13,0,.26.13.13.52,0,1.169.39,1.559.13.13,0,.26-.13.39,0,.39-.26.26-.26.26a14.233,14.233,0,0,1,4.938,4.028c.91-.65,4.158-2.729,4.028-4.808,0-.65-.39-.65-.52-1.04a2.331,2.331,0,0,1-.65-.91,3.494,3.494,0,0,1-.52-2.339c.26-.65.26-1.3.52-1.949a34.838,34.838,0,0,0,.91-3.508,30.246,30.246,0,0,0,1.04-4.938,7.5,7.5,0,0,0,.39-1.819,8.841,8.841,0,0,0,.26-1.949c.13-.52,0-1.04.26-1.429.13-.26,0-.52.13-.78,0-.39.39-.26.39-.65.26-.13.39-.52.52-.65S65.814,49.55,65.425,49.16ZM64,44.612c.26.13.52.13.65.39.26.13.26.39.39.65,0,.13,0,.39-.13.39a1.647,1.647,0,0,1-1.169-.52C63.605,45.132,63.865,44.872,64,44.612ZM61.266,50.98a13.362,13.362,0,0,1-.13,2.339c-.13.13,0,.26,0,.39-.13.78,0,1.689-.13,2.469h-.13c-.26-.39-.91-.52-.91-1.04a22.882,22.882,0,0,0,.39-4.288,17.028,17.028,0,0,0,0-3.638.127.127,0,0,1,.13-.13c.39.13.52.52.91.65A13.616,13.616,0,0,0,61.266,50.98Zm-17.8-10.266c-.39,0-.39-.39-.52-.65a.781.781,0,0,1-.13-.52.477.477,0,0,0,.13-.39c-.13-.13-.39,0-.39-.26s-.13-.65.26-.78c.26-.13.65,0,1.04-.26a.127.127,0,0,0-.13-.13,1.878,1.878,0,0,0-.91.26c-.13,0-.13-.13-.13-.26a6.689,6.689,0,0,1,.13-2.339c0-.13-.13-.39,0-.52.39-.13.52.52.91.39h0c-.26-.26-.52-.52-.78-.52-.13-.26,0-.65,0-.91.13-.13.13-.26.26-.13.26.13.39.39.65.52.13,0,.13-.13.13-.26-.26-.39-1.04-.39-.65-1.04,0-.26.13-.52.39-.52.26.13.39.39.65.52h.13c-.26-.26-.39-.52-.26-.78.13-.13.39.13.52.13l.26.13c.26.13.65.26.65.65.26.39.26.78.65,1.04a1.794,1.794,0,0,0,.39.52c-.13.13-.26.13-.26,0-.26-.13-.39-.52-.65-.78-.13,0-.13,0-.13.13.13.26.13.65.39.78V35a2.11,2.11,0,0,1-1.169-.65.184.184,0,1,0-.26.26c.26.39.39.78.78.91.13,0,.13.26,0,.26,0,.26-.26.13-.39.13a3.445,3.445,0,0,0-.78-.65h-.13c0,.26.26.39.26.52.26.39.78.39.65.91,0,.13,0,.26-.13.26-.65-.13-1.559-.39-2.079.26,0,.13,0,.13.13.13a2.525,2.525,0,0,1,1.689.39c.13.13.26.26.13.39a.477.477,0,0,0-.39.13,2.84,2.84,0,0,1-.65.39v.13c.26-.13.65-.26.91-.39.13,0,.26,0,.26.13s-.13.13-.26.26c0-.26-.52-.13-.52.26h.13c.39,0,.65-.65,1.04-.52.13,0,.13.13.13.26-.52.39-1.3.65-1.429,1.429v.13c.13,0,.13-.13.26-.26a3.8,3.8,0,0,1,1.559-.91.127.127,0,0,1,.13.13c0,.26-.52.52-.52.78-.13.26-.13.52-.26.78,0,0,.13.13.13,0,.26-.39.52-1.04,1.04-1.3,0,.13.13,0,.26.13a.926.926,0,0,1,.78.39c0,.65-.26,1.429,0,1.949.13-.13,0-.26.13-.39,0-.52.26-.78.39-1.3,0-.13.26-.13.26-.13.26.13.26.39.52.52.13-.13,0-.52,0-.65a.477.477,0,0,1,.39-.13h.26a.18.18,0,0,0,0-.26c.26-.26.39-.78.91-.65l.13.13a2.211,2.211,0,0,1-.13.91c-.13,0-.13-.26-.39-.13-.13.13,0,.26,0,.39l.39.78c0,.13.13.13,0,.26-.39,0-.52-.39-.65-.52s-.26,0-.26.13c-.13.39.26.78.52,1.04a.454.454,0,0,1,.26.13c0,.13-.13.26,0,.39l.13.26c-.13.13-.39,0-.65-.13a2.383,2.383,0,0,1-.91-1.3s-.13-.13-.13,0a.8.8,0,0,0,.26.91.715.715,0,0,1,.39.65.477.477,0,0,1-.39.13c-.39-.26-.39-.78-.39-1.169,0,0-.13-.13-.13,0a1.413,1.413,0,0,0-.13.65c0,.13.13.52-.13.65s-.52,0-.78.13c-.26-.13-.26-.52-.26-.78,0-.13-.13,0-.13,0-.26.13-.26.78-.65.65a1.99,1.99,0,0,1-.91-.65c-.13-.39.26-.52.26-.91.13-.26.39-.52.52-.78-.13-.13-.39.13-.52.26a5.267,5.267,0,0,0-.65,1.169c0,.13-.13.13-.26.13-.39-.39-1.3-.65-1.169-1.3.13-.13.13-.26.26-.39C43.724,40.324,43.594,40.584,43.464,40.714Zm9.1,1.429h.13a2.861,2.861,0,0,0,.13-1.04,16,16,0,0,1,.26-2.6c0-.13,0-.39.26-.39a.926.926,0,0,1,.78.39,7.921,7.921,0,0,1-.39,3.508,7.762,7.762,0,0,1-.78,1.429c-.13.13-.13.52-.52.52a6.288,6.288,0,0,1-1.3-3.768c0-.52-.26-1.3.13-1.689.39-.13.65-.52,1.04-.39v.13C52.56,39.415,52.17,40.844,52.56,42.144Zm3.379,3.768a1.976,1.976,0,0,1-1.3-1.689c0-.13.13-.13.13,0l.65.65a2.844,2.844,0,0,1,1.3,1.169c0,.13.13.39-.13.52a1.18,1.18,0,0,1-.91.39,2.421,2.421,0,0,1-1.559-1.169,2.214,2.214,0,0,1,0-1.3c.26,0,.13.26.26.39.26.52.78,1.3,1.429,1.429C56.069,46.042,55.939,45.912,55.939,45.912Zm-.26-6.107-.39.39c-.13-.26.13-.52.13-.65v-.13c-.13-.13-.26,0-.26-.26v-.26h.26a7.428,7.428,0,0,0,1.04.91,1.648,1.648,0,0,1-.13.78c0,.26-.26.52-.26.78,0,.13.13.13.13,0a6.1,6.1,0,0,1,.78-1.169,3.533,3.533,0,0,1,1.169,0c.26.13.13.52.26.78a.781.781,0,0,0,.13.52c.26,0,.26-.39.26-.52a2.8,2.8,0,0,0,0-1.04v-.26a.244.244,0,0,1,.39,0c.26.13.39.52.65.65.13,0,0-.13,0-.26,0-.26-.39-.52-.39-.78,0-.13.13-.13.26-.13.26.13.13.52.39.65.13,0,0-.13,0-.26a1.847,1.847,0,0,1-.26-.78.18.18,0,0,1,.26,0,3.89,3.89,0,0,1,1.04.52c.39.26.39.78.52,1.169-.13.39.26.91-.13,1.169-.26.13-.52.39-.78.52-.13-.13-.13-.26-.26-.39-.26-.26-.39-.91-.78-.78-.13.13.13.39.13.65,0,.39.39.78.13,1.169-.39-.13-.52.39-.91.26s-.78.65-1.169,0a7.992,7.992,0,0,0-.13-1.689.985.985,0,0,0-.26-.52c-.13.13,0,.39-.13.65a2.619,2.619,0,0,1-.39,1.429c-.13.13-.26.26-.39.13a.127.127,0,0,1-.13-.13c0-.26.13-.52.13-.78,0-.13-.13,0-.13,0-.26.39-.65.91-1.169.78-.13-.13-.13-.13-.26-.13.13-.26.52-.52.52-.78-.26,0-.39.26-.65.39-.13-.91.78-1.429.91-2.339C55.809,39.8,55.679,39.8,55.679,39.8Zm0-4.288a2.578,2.578,0,0,1,1.689-.78,2.263,2.263,0,0,1,1.819.65,2.519,2.519,0,0,1,.39,2.339A2.44,2.44,0,0,1,57.5,39.155c-.39.13-.65-.13-1.04-.26-.52-.26-.65-.78-.91-1.169A2.223,2.223,0,0,1,55.679,35.516Zm6.757,10.4a.454.454,0,0,1,.26-.13,1.171,1.171,0,0,1,.65.13,1.141,1.141,0,0,1,.13.91.8.8,0,0,1-.91-.26C62.306,46.3,62.566,46.042,62.436,45.912Zm.26-.52a2.312,2.312,0,0,1-1.04-.91c-.13-.39-.39-.65-.39-1.04,0-.26-.13-.52,0-.78h0a5.36,5.36,0,0,0,1.3,1.689c.13.13.39.13.52.39A.715.715,0,0,1,62.7,45.392Zm-3.119,8.056c-.39.13-.65-.39-1.04-.52a2.9,2.9,0,0,1-.78-1.689l.13-.13c.26.39.52.91,1.04,1.04.13,0,.13,0,.13-.13-.13-.39-.39-.78-.26-1.169.26,0,.39.39.78.39.13.13.13.52.13.65C59.577,52.409,59.707,53.059,59.577,53.449Zm-.13,8.446c0-1.04.26-2.209.26-3.249a.993.993,0,0,1,.65-.26v.65c0,1.04-.13,2.079-.13,3.249,0,.39-.13.91-.13,1.3a1.927,1.927,0,0,0-.13.91,14.026,14.026,0,0,1-.39,2.469c-.13.13-.13.52-.39.52-.26-.26-.13-.65-.13-.91.13-.26,0-.65.13-.91A36.713,36.713,0,0,0,59.447,61.895Zm-.26,7.537a7.99,7.99,0,0,1,.39,1.429c0,.26.13.52-.13.65a2.046,2.046,0,0,0-1.689.52.477.477,0,0,1-.39-.13c-.13-.26,0-.52,0-.78.13-.26,0-.65.26-.91.13-.13.39-.13.39-.39-.26-.13-.65,0-.78-.26a2.309,2.309,0,0,1-.52-1.3,1.708,1.708,0,0,1,1.559-.39c.13.13.39.13.39.26A6.376,6.376,0,0,1,59.187,69.432Zm-.91,3.119c.13-.39.52-.39.78-.52.13,0,.26,0,.26.13a4.529,4.529,0,0,1-.78,2.209c0,.13-.13.13-.26.13s0-.13,0-.26A1.928,1.928,0,0,0,58.278,72.55Zm-1.3,1.3c-.52-.13-1.169-.52-1.169-1.169,0-.13-.13-.26-.13-.39a1.4,1.4,0,0,1,1.04-.26l.13.13C56.718,72.68,56.588,73.46,56.978,73.85Zm-.78-2.209c-.26,0-.52.26-.78.26-.13-.26-.13-.52-.26-.78a2.238,2.238,0,0,1,.78-2.339c.13-.13.26,0,.39,0a3.257,3.257,0,0,1,.52.91,4.326,4.326,0,0,1,.39.78,3.533,3.533,0,0,1,0,1.169C56.848,71.771,56.458,71.511,56.2,71.641Zm-5.977,1.3c.26-.13.52-.39.91-.13a.955.955,0,0,1,.26.78,2.283,2.283,0,0,1-1.3,1.169.127.127,0,0,1-.13-.13c0-.39.26-.65.13-1.04C49.961,73.33,50.091,73.2,50.221,72.94Zm1.04-.52a.993.993,0,0,1-.65-.26c-.26,0-.26.26-.52.39-.13,0-.13.13-.26.13a1.648,1.648,0,0,1-.13-.78,1.141,1.141,0,0,1,.13-.91c.26-.13.39-.39.65-.39.13-.13.13-.13.13-.26a.781.781,0,0,0-.52-.13,2.281,2.281,0,0,0-.65.52,2.137,2.137,0,0,1-.26-1.3c0-.39.13-.91.52-1.04.26.13.78.13.91.52a4.554,4.554,0,0,1,1.169,2.209,3.2,3.2,0,0,1-.13,1.559C51.391,72.68,51.391,72.55,51.261,72.42ZM49.7,67.482a1.848,1.848,0,0,1-.78-2.079c0-.13,0-.39.26-.39.13.13.13.26.26.39.39.78,1.3,1.3,1.949,1.949a1.7,1.7,0,0,1,.78,1.559c.13.13,0,.39,0,.52a.127.127,0,0,1-.13-.13A5.239,5.239,0,0,0,49.7,67.482Zm-3.768-22.61c.26-.13.39-.39.65-.52.26-.26.39-.52.65-.78.13,0,.26,0,.26.13a3.058,3.058,0,0,1-.26,1.04,2.631,2.631,0,0,1-1.819,1.689.993.993,0,0,1-.65-.26c0-.39-.13-.65-.13-.91,0-.65.52-1.169.91-1.819.13-.13.39-.26.39,0a4.421,4.421,0,0,0-.13,1.3A.127.127,0,0,1,45.933,44.872Zm1.949,4.808a12.94,12.94,0,0,0,1.3-1.429h.13a3.984,3.984,0,0,1-1.169,2.469,1.785,1.785,0,0,1-1.559.52c-.39-.13-.52-.52-.65-.78a1.878,1.878,0,0,1,.26-.91,4.634,4.634,0,0,0,1.429-1.3c0-.13.13-.13.26-.13a3.829,3.829,0,0,1-.65,1.689A.516.516,0,0,0,47.882,49.68Zm1.429-3.508a1.8,1.8,0,0,0,1.04-.91c0-.26.26-.39.39-.65h.13A3.2,3.2,0,0,1,49.7,47.081a.781.781,0,0,1-.52.13c-.26-.13-.65-.26-.65-.52,0-.65.13-1.169.65-1.429.13-.13.26-.39.52-.52a2.448,2.448,0,0,1-.26,1.04C49.442,45.912,49.182,46.042,49.312,46.172Zm2.469,8.966h0c.26-.13.13-.39.26-.52a.18.18,0,0,1,.26,0c.39.26.13.78.26,1.169a4.617,4.617,0,0,1-.26,1.3.18.18,0,0,0,.26,0c.39-.52.26-1.04.39-1.689a.477.477,0,0,1,.13-.39c.13,0,.13,0,.13.13v1.169h.13c.39-.52.13-1.169.39-1.819.13-.26,0-.65.13-1.04.26,0,.26.26.26.52a.675.675,0,0,0,.26.52c.13,1.3.52,3.119-.78,3.9a1.82,1.82,0,0,1-1.429,0c-.39-.13-.52-.65-.65-.91a5.212,5.212,0,0,1-.39-2.469,6.939,6.939,0,0,1,.65-2.339c.13,0,0,.26,0,.39A11.088,11.088,0,0,0,51.781,55.138Zm3.768-2.729c-.13-.26-.13-.65-.26-1.04,0-.26.26,0,.26.13.26.78,1.429.91,1.429,1.819a.828.828,0,0,1,0,.78,1.588,1.588,0,0,1-1.169.39c-.65-.26-1.04-.91-1.559-1.429,0-.39-.39-.65-.13-1.04a.454.454,0,0,1,.26.13,8.407,8.407,0,0,0,1.169,1.04c.13,0,.13,0,.26-.13C56.069,52.8,55.679,52.669,55.549,52.409Zm-.65,7.537c-.13-.26-.52-.52-.52-.78,0-.13-.13-.26.13-.39a3.547,3.547,0,0,1,1.559,1.169,1.791,1.791,0,0,1,0,1.169c0,.13-.13.39-.26.39a.974.974,0,0,1-.65.13,2.785,2.785,0,0,1-1.169-1.949h.13c.26.26.39.91.91.65A.641.641,0,0,0,54.9,59.946Zm1.169-1.429a2.918,2.918,0,0,1-.78-1.819s.13-.13.13,0a.477.477,0,0,1,.13.39c.13.26.26.65.65.65.13,0,0-.26,0-.26,0-.39-.26-.65-.13-1.04h0c.52.52,1.169,1.04.91,1.819a.415.415,0,0,1-.39.39A.982.982,0,0,1,56.069,58.516Zm-6.627-.78a7.142,7.142,0,0,0,.91-1.169c.13,0,.13,0,.13.13a2.375,2.375,0,0,1-1.169,2.339,1.413,1.413,0,0,1-.65.13c-.13-.13-.26-.39-.39-.52a2.145,2.145,0,0,1,.65-1.949c.26-.26.26-.52.52-.65.26.13.13.65.13.91,0,.39-.26.52-.26.91C49.182,58,49.312,57.737,49.442,57.737Zm.65,1.559c.13-.39.52-.52.78-.91.13,0,.26,0,.26.13a3.829,3.829,0,0,1-.65,1.689c.13.13.26-.13.52-.13.39-.26.39-.78.65-1.169a.454.454,0,0,1,.26.13,2.493,2.493,0,0,1-.52,2.339c-.26.52-.78.26-1.169.39-.26,0-.52-.13-.52-.39C49.442,60.6,49.961,59.946,50.091,59.3Zm1.169-7.537A3.058,3.058,0,0,1,51,52.8l-.13.13c.13.13,0,.26,0,.39a1.8,1.8,0,0,1-1.559,1.429,1.847,1.847,0,0,1-.78-.26c-.39-.26-.26-.78-.26-1.3a10.534,10.534,0,0,1,1.3-2.339s.13-.13.13,0a3.7,3.7,0,0,1-.26,2.079.477.477,0,0,0,.13.39c.26-.13.26-.39.52-.52v-.13a6.719,6.719,0,0,0,.78-1.689.127.127,0,0,1,.13-.13A.918.918,0,0,1,51.261,51.759Zm-3.9-4.028a1.6,1.6,0,0,1-1.04.52.279.279,0,0,1-.26-.26c-.13-.78.52-1.169.65-1.819.13-.13.26-.39.39-.39.13.39-.13.78-.13,1.3.13.13.26-.13.39-.26a9.023,9.023,0,0,0,.65-1.689c0-.13.13,0,.13,0A5.553,5.553,0,0,1,47.362,47.731Zm-1.429,4.808.65-.65c.13,0,.13,0,.13.13a1.747,1.747,0,0,1-.26,1.169c0,.13-.13.39,0,.52.26,0,.39-.26.52-.39a3.5,3.5,0,0,1,.91-1.04h.13a3.829,3.829,0,0,1-.65,1.689,1.309,1.309,0,0,1-1.429.78l-.13-.13A2.841,2.841,0,0,1,45.933,52.539Zm2.209,7.8c.13-.13.13-.26.26-.26,0,.26-.26.39-.26.65a1.847,1.847,0,0,0-.26.78c.13.13.26,0,.39,0l.78-.78v.26c-.26.52-.52,1.3-1.3,1.429a.974.974,0,0,1-.65-.13,1.6,1.6,0,0,1,.26-1.3C47.622,60.855,47.752,60.466,48.142,60.336Zm-.13,5.068c0,.52.13,1.17-.13,1.559-.13.13-.26.26-.39.13-.26-.13-.26-.26-.26-.52a3.2,3.2,0,0,1,.13-1.559c.13-.39.13-.65.26-1.04,0-.26.13-.52.13-.78.13.13,0,.39.13.52C48.012,64.364,47.752,64.884,48.012,65.4Zm-.91,3.9a3.257,3.257,0,0,1,.52-.91c.13-.26.52-.13.78-.26.26.13.78-.13.65.26a1.99,1.99,0,0,0-.26,1.689c-.13.26-.78,0-.65.39.26.39.65.13.78.52s.13.91.26,1.3c0,.13-.13,0-.13,0-.39-.26-.78-.52-1.169-.26-.26.13-.39.39-.65.65-.13.13-.13-.13-.13-.13A5.531,5.531,0,0,1,47.1,69.3Zm3.249-3.379c-.26-.39-.39-.91-.65-1.3a5.266,5.266,0,0,1,0-1.429.477.477,0,0,1,.13-.39h0A4.391,4.391,0,0,0,51,65.273c.39.39,1.3.52,1.169,1.3,0,.39.26.65,0,1.04-.13,0-.13,0-.13-.13C51.651,66.833,50.871,66.443,50.351,65.923Zm1.949-1.3a1.866,1.866,0,0,1-.65-1.949,1.6,1.6,0,0,1,.65-1.3c.13-.13,0-.39.26-.39.13.13,0,.26-.13.26.13.52.39,1.3-.13,1.689,0,.13,0,.26.13.26.52.13.39-.52.65-.65a1.6,1.6,0,0,1-.52,1.04c0,.13.26.13.26.26.26,0,.39-.39.52-.52a1.924,1.924,0,0,0-.26-1.689.658.658,0,0,1,.13-.65c.39,0,.52.39.65.65a2.235,2.235,0,0,1,.13,1.819c.13.65-.52.78-.78,1.169C52.95,64.624,52.56,64.884,52.3,64.624Zm1.3,1.3c0-.26.26-.39.39-.65a7,7,0,0,1,.91-1.689c.26-.26.13-.65.26-1.04.13,0,.13.26.26.39a3.269,3.269,0,0,1-.13,1.949c-.39.78-1.04,1.429-1.3,2.079-.13.13-.13.39-.26.52A1.362,1.362,0,0,1,53.6,65.923Zm.39,2.469a6.719,6.719,0,0,1,.78-1.689,7.125,7.125,0,0,0,1.04-1.949c0-.13-.13-.26,0-.39a1.8,1.8,0,0,1,.26,1.429c0,1.3-1.429,2.079-1.559,3.249-.13.13-.26.39-.39.52C53.99,69.3,54.12,68.782,53.99,68.392Zm3.119-2.6c0-.78.26-1.429.26-2.209,0-.13.13-.26.13-.13a11.444,11.444,0,0,0,.26,2.209c0,.52.13,1.17-.39,1.429-.13.13-.26,0-.26-.13C56.848,66.573,57.108,66.183,57.108,65.793Zm1.04-4.418c-.13.13-.26.26-.52.13a2,2,0,0,1-1.169-1.689c.13,0,.26.26.39.26.26.13.39.65.78.39,0-.39-.39-.52-.52-.91,0-.13-.13-.26-.13-.39.13,0,.13.26.39.39a1.57,1.57,0,0,1,.91.91A.8.8,0,0,1,58.148,61.375ZM56.718,50.07a2.265,2.265,0,0,1-.78-1.559c0-.13-.13-.39,0-.52a.127.127,0,0,1,.13.13c.26.26.52.78.91.91.13.13.13.13.13.26.13,0,.26,0,.26-.13a.985.985,0,0,0-.26-.52c-.13-.39-.52-.65-.39-1.169.13-.13.26.13.52.26.52.13,1.3.52,1.429,1.169a1.747,1.747,0,0,1-.26,1.169A2.483,2.483,0,0,1,56.718,50.07Zm1.559-3.9c.13.13.26.26.39.26a1.077,1.077,0,0,1,.39,1.04c-.13.13-.13.39-.26.52-.39,0-.65-.39-.91-.65a.8.8,0,0,1-.26-.91c0-.13.13,0,.26,0,.26.13.39.52.65.26C58.408,46.562,58.148,46.432,58.278,46.172Zm.39-.26a3.658,3.658,0,0,1-.78-1.949h.13c.26.39.65,1.04,1.3,1.04.13-.13-.13-.39-.13-.52,0-.26-.13-.39-.13-.65.13,0,.13.13.26.26a1.8,1.8,0,0,1,.91,1.04,1.707,1.707,0,0,1-.39,1.3A2.449,2.449,0,0,1,58.668,45.912ZM54.509,50.85a2.651,2.651,0,0,1-1.949,1.04c-.39-.13-.78-.13-1.04-.52,0-.26-.39-.39-.26-.78a3.739,3.739,0,0,1-.39-2.079,8,8,0,0,1,.26-2.469c.13-.13.26-.52.39-.26,0,.78-.26,1.429.13,2.079.13,0,.13.13.26.13.26-.13,0-.52.13-.78.13-.13.13,0,.26.13a6.8,6.8,0,0,0,.39,2.339c.13.13.26.26.39.13s0-.13.13-.26a5.026,5.026,0,0,1,0-3.379c.13,0,.13,0,.13.13.13.65-.13,1.429.13,1.949.26-.13.26-.39.39-.65.13-.65,0-1.429.13-2.079.13,0,0,.13.13.13C54.509,47.341,55.549,49.29,54.509,50.85ZM51.391,36.036c0-.13.13-.39-.13-.39-.13,0-.39.13-.52.13l-.13-.13v-.13c.26-.13.65-.39.91-.52.13-.13.26-.26.39-.13a1.267,1.267,0,0,1-.52,1.169ZM50.481,35c-.26,0-.52.13-.78-.13.13-.26.39-.13.52-.26.39-.13.65.26.91.26V35C51,35,50.741,34.867,50.481,35Zm.78-2.079c-.13,0-.13-.26-.26-.26-.13-.13-.13-.13-.26-.13a2.84,2.84,0,0,0-.39.65v.13c-.26,0-.26-.26-.52-.39-.13-.39.26-.65.39-.91a.926.926,0,0,1,.78.39C51.131,32.4,51.391,32.528,51.261,32.918Zm-1.04.78c-.13.39.39.26.52.39v.13c0,.13-.26.13-.39.13a1.381,1.381,0,0,0-1.04.13.477.477,0,0,1-.39-.13c0-.26.39-.13.52-.13.13-.13.26-.13.39-.26-.39-.26-.91,0-1.3,0a1.11,1.11,0,0,1-.91,0,.127.127,0,0,1,.13-.13c.39.13.65-.26,1.04-.26.26-.13.65,0,1.04,0C49.961,33.567,50.091,33.7,50.221,33.7Zm-1.04-.65c-.65,0-1.169.39-1.949.26a.13.13,0,1,1,0-.26c.13-.26.52-.13.65-.26a.781.781,0,0,0,.52-.13c.39,0,.91,0,1.169.39v.13C49.442,33.177,49.312,33.047,49.182,33.047Zm-1.689,1.819a2.3,2.3,0,0,1,2.079.39,2.409,2.409,0,0,1,.26,2.469c-.26.52-.65,1.169-1.3,1.169a2.046,2.046,0,0,1-2.209-.52,1.93,1.93,0,0,1-.52-1.819A2.718,2.718,0,0,1,47.492,34.867Zm-2.469,12.6h0c0,1.559.13,2.989.26,4.678.13,1.429.13,2.859.26,4.158,0,.26-.26.39-.39.65-.13.13-.26.39-.52.52-.26-.39-.13-.91-.26-1.429-.13-2.209-.39-4.678-.39-7.017a6.333,6.333,0,0,0,.39-.91A1.566,1.566,0,0,0,45.023,47.471Zm.65,9.226h0l1.04-1.04h.13a4.116,4.116,0,0,1-.78,1.949c0,.13,0,.13.13.13a6.508,6.508,0,0,1,.91-1.04c.26-.26.39-.52.65-.78.13.26,0,.52,0,.65a2.912,2.912,0,0,1-1.559,2.469c-.39,0-.52.26-.91.13a.863.863,0,0,1-.65-.52A3.61,3.61,0,0,1,45.673,56.7Zm-.52,2.989.39-.13a.127.127,0,0,1,.13.13c.13,1.169.13,2.339.26,3.508a15.92,15.92,0,0,0,.26,2.469,7.6,7.6,0,0,0,.26,1.689c.26.52-.13.78-.26,1.169-.39,0,0-.52-.26-.78a27.094,27.094,0,0,1-.91-4.678c-.13-.78-.13-1.559-.26-2.339-.13-.39,0-.78-.13-1.169C44.894,59.556,45.023,59.686,45.153,59.686Zm-.26,11.175a2.619,2.619,0,0,1,.39-1.429c0-.26.26-.26.52-.39.26,0,.52-.26.78,0,0,.13.26.26.13.52a1.732,1.732,0,0,1-.65.78c-.13,0-.39-.13-.39.13,0,.39.52.13.65.39,0,.26.13.65,0,.91a2.211,2.211,0,0,0-.91.13c-.13.13-.26.26-.39.13C44.634,71.771,44.764,71.251,44.894,70.861Zm.65,1.3a.828.828,0,0,1,.78,0c0,.26-.13.65-.13.91a.977.977,0,0,0,.65.91h0c-.26.13-.52-.13-.78-.26-.39-.26-.39-.65-.52-.91C45.543,72.68,45.283,72.29,45.543,72.16Zm2.6.26a.955.955,0,0,1,.78.26c0,.26-.13.52-.13.91a1.4,1.4,0,0,0,.26,1.04v.13a1.1,1.1,0,0,1-.65-.39,1.98,1.98,0,0,1-.78-1.3C47.622,72.68,47.882,72.55,48.142,72.42Zm12.215-.26c-.13,0,0-.13,0-.26.26-.39.65-.13,1.04-.26h0c.13.39-.39.65-.52,1.04a.4.4,0,0,0-.13.26c-.26.26-.39.52-.65.78h-.13C60.1,73.33,60.617,72.81,60.357,72.16Zm1.169-.91c-.13.13-.13.13-.26.13-.39-.13-.65.13-1.04.13a2.409,2.409,0,0,1-.26-.91c.26-.26.52-.39.65-.65,0-.13,0-.13-.13-.13-.26,0-.52.52-.78.13a8.954,8.954,0,0,1-.39-1.04.571.571,0,0,1,.65.13l.39.13c.65.13.65.91,1.04,1.3C61.526,70.6,61.916,70.991,61.526,71.251ZM60.1,58.127a2.48,2.48,0,0,1-2.079-.78,2.309,2.309,0,0,1-.52-1.3c0-.13.13-.13.26-.13a3.364,3.364,0,0,0,1.429.91l.13-.13c.13,0,.13.26.26.13,0,0,.13-.13,0-.13a3.157,3.157,0,0,1-1.169-1.819c0-.13.13-.13.26-.13a18.6,18.6,0,0,1,1.949,1.429c.26.39.52.78.39,1.169A4.146,4.146,0,0,1,60.1,58.127Zm.39-12.734c0-.13.13,0,.13,0,.26.26.39.52.65.78.52.39.91.91,1.559,1.04.13.26.52.26.65.39,0,.26-.13.52-.39.52-.78,0-1.169-.52-1.689-1.04A5.187,5.187,0,0,1,60.487,45.392Zm2.989-1.169a.781.781,0,0,1-.52-.13c-.52-.26-.26-.78-.39-1.3,0-.39-.13-.78.13-1.04a.127.127,0,0,1,.13.13A6.94,6.94,0,0,1,63.475,44.223Zm-.52-5.068c0,.13-.13,0-.26,0-.13-.26-.52-.39-.65-.78,0-.13-.26-.13-.26,0,0,0-.13.13,0,.13.39.52.52,1.04.91,1.559,0,.26-.26.52-.39.78h-.13c-.26-.13-.26-.39-.39-.65,0-.13-.13-.39-.13-.52.13-.52-.39-.78-.52-1.169-.26-.26-.65-.26-.78-.52,0-.13,0-.26.13-.26.39-.39.78.13,1.169-.13.13.13.39,0,.52,0,.26.13.52.39.78.39.26.13.26.39.26.65C63.086,38.895,62.956,39.025,62.956,39.155Zm-.65-4.808c0,.13-.13.39,0,.52s.39.13.39.39c0,.13,0,.26-.13.26a1.182,1.182,0,0,0-1.04.52c0,.13,0,.13.13.13.26,0,.26-.39.65-.39.26,0,.39-.13.65,0,0,.26.26.39.26.52-.13.39.13.91-.13,1.3-.52,0-.91-.52-1.429-.13-.26,0-.65-.26-.91-.13a.625.625,0,0,1-.26-.78c.13-.26.39-.13.52-.39.13,0,.39.13.39,0,0-.26-.39-.13-.52-.13s-.26.13-.52.13c-.13-.13-.13-.26-.13-.52.26-.52.91-.65,1.3-.78,0,0,.13-.13,0-.13-.52-.39-1.169.13-1.559.39-.13,0-.13,0-.13-.13.13-.39.26-.78.65-.91l.13-.13c-.13-.13-.26,0-.39,0a2.835,2.835,0,0,1-.65.52c0-.26.39-.52.52-.91a.127.127,0,0,0-.13-.13,9.162,9.162,0,0,1-1.169.91h-.39c-.13,0,0-.13,0-.26a6.1,6.1,0,0,0,.78-1.169c.26-.78,1.169-.65,1.689-1.169.26.13.52-.13.65.13-.26.26-.39.26-.52.39-.26.26-.78.39-.91.78.26.13.26-.13.52-.26.13-.13.26-.26.39-.13.26.26.39-.39.52.13-.13.26-.39.26-.52.39a1.1,1.1,0,0,0-.39.65c0,.13.13,0,.26,0a1.315,1.315,0,0,1,.91-.52A1.182,1.182,0,0,1,62.306,34.347Zm-4.548-3.768c.26-.39.78-.26,1.04-.52.91-.26,1.819.13,2.6-.52l.91-.65c.39,0,.52-.39.78-.52.13,0,.26,0,.26.13-.13.39-.26.78-.39,1.3-.13.65-.78.78-1.3,1.169a1.4,1.4,0,0,1-1.04.26,2.074,2.074,0,0,0-1.819,1.04c.13.26-.13.39-.26.39-.13.13-.39.13-.52.26.13.13.26,0,.26.26-.39.39-1.04,0-1.429.39l-.13.13c.13.13.39,0,.39.13-.26.26-.78.13-1.04.39,0,.13,0,.13.13.13s.26-.13.39,0c0,.13-.13.13-.26.26-.39.13-.78,0-1.04.26.13.13.39.13.52.26-.39.26-.91.26-1.169.52-.26.13.13.91-.39.65a2.094,2.094,0,0,1-.52-.91c.13-.13,0-.52.13-.39.26.13.26.39.39.52.13,0,.26-.13.39-.26-.26-.39.39-.39.52-.65,0-.39.39-.26.52-.39.39-.13.65-.13,1.04-.26a.127.127,0,0,1-.13-.13h-.13V33.7c.39-.52,1.04-.39,1.559-.52,0-.13-.26-.13-.13-.26.39-.26,1.04-.13,1.169-.65,0-.13.13-.26,0-.26-.26.13-.39.39-.65.52a2.718,2.718,0,0,1-.78.52c0-.13.13-.26.26-.39A4.493,4.493,0,0,0,58.8,31.1c0-.13-.13,0-.26,0-.39.39-.91.65-1.3,1.04-.13,0-.26.13-.26,0-.13-.26.26-.26.26-.52A1.35,1.35,0,0,1,57.758,30.579ZM53.47,32.918a.974.974,0,0,1-.13-.65h-.13a.985.985,0,0,0-.26.52h-.13a1.381,1.381,0,0,1,.13-1.04c.13-.13.26-.26.39-.26l.39.39A1.4,1.4,0,0,1,53.47,32.918Zm1.3-.52c-.13-.13-.26.13-.39.13-.13.13-.26.39-.39.52-.13,0-.13,0-.13-.13a3.058,3.058,0,0,1,.26-1.04c.13-.26.52-.26.65-.52.13-.13.52-.26.52.13a1.847,1.847,0,0,0,.26.78c0,.26-.26.52-.26.78a.454.454,0,0,1-.26.13A1.847,1.847,0,0,0,54.769,32.4Zm.39-2.989c0-.39.39-.26.65-.39.39,0,.91,0,1.169.39.13.13.13.26.13.52-.26.13-.13.52-.39.65-.39-.13-.26-.52-.52-.78-.39-.26-.65.13-1.04.26C54.9,29.8,55.159,29.539,55.159,29.409Zm.39.78c.13,0,.13,0,.26.13,0,.52.65.91.13,1.3-.39,0-.26-.39-.39-.65-.26-.26-.52.26-.78.13-.13,0-.26-.13-.13-.26C54.639,30.449,55.159,30.319,55.549,30.189Zm-2.729-.78c.26-.52.78-.52,1.3-.52.26.26.26.52.52.65a.781.781,0,0,1-.13.52c-.13,0-.26-.26-.39-.26a.955.955,0,0,0-.78-.26c-.13,0-.26.26-.39.13C52.82,29.669,52.82,29.539,52.82,29.409Zm.52.65c.26-.13.39.26.52.52,0,.13.39.26.26.52-.13.13-.13.26-.26.26-.26-.13-.39-.52-.65-.39-.13.13-.26.26-.39.26a.781.781,0,0,1-.13-.52A1.533,1.533,0,0,1,53.34,30.059Zm-.65,5.068c.26-.13.52.13.65-.13h0c0,.26.26.65.13.91,0,.13.13.26.13.52-.13,0-.13-.26-.26-.39a.279.279,0,0,0-.26-.26c-.26,0-.13.65-.39.26-.13-.26.13-.52-.13-.65-.13.26-.26.39-.39.65a.279.279,0,0,1-.26-.26c.39-.13-.13-.65.39-.78A.477.477,0,0,1,52.69,35.127Zm-.26-2.6c-.13,0-.13-.13-.13-.26s-.13-.26-.26-.13-.13.26-.13.52h0a.8.8,0,0,1-.26-.91c0-.26.26-.39.39-.52.13,0,.26.13.39.26A1.423,1.423,0,0,1,52.43,32.528Zm-.91-1.559c0,.13-.13.26-.26.39a.454.454,0,0,1-.26-.13c-.13-.13,0-.26,0-.39.13-.26.26-.65.52-.78.26,0,.52.39.78.39a.477.477,0,0,1,.13.39C52.04,30.968,51.651,30.579,51.521,30.968Zm0-2.209a.781.781,0,0,1,.52.13c.13.13.13.39.39.65,0,.13,0,.26-.13.26-.52.13-.52-.52-1.04-.39a2.835,2.835,0,0,0-.52.65c-.13,0-.13.13-.26.13-.13-.13-.26-.26-.26-.39A1.543,1.543,0,0,1,51.521,28.759Zm-1.04,2.079c0,.13.13.39,0,.52-.26,0-.65,0-.78.39-.13.13-.13.39-.39.52a1.794,1.794,0,0,1-.39-.52c.13-.26.26-.65.39-.91l.13-.13C49.961,30.708,50.221,30.968,50.481,30.838Zm-1.689-1.559a.955.955,0,0,1,.78.26c.13.13.26.39.39.39s.13.13.13.26c-.13.13-.26,0-.39,0-.26,0-.65-.39-.91.13-.13.13-.13.39-.26.39a.993.993,0,0,1-.26-.65C48.4,29.8,48.532,29.409,48.792,29.279Zm-6.627.13v-1.04l.13-.13c.39-.13.26.39.52.52a1.115,1.115,0,0,0,.91.78,7.1,7.1,0,0,1,2.339.13,2.725,2.725,0,0,1,1.429,1.04c.13,0,.13-.13.26-.13.13.13.52.26.39.52.39,0,.52.52.91.78-.26.26.65.65-.13.65-.52-.26-1.04.13-1.559.13a.477.477,0,0,1-.39-.13V32.4a1.476,1.476,0,0,1,1.04-.39c.13,0,0-.26.26-.13.13.13.13.26.26.26v-.13c-.26,0-.26-.39-.52-.39s-.39,0-.52-.26c-.13-.39-.52-.52-.78-.65a.477.477,0,0,0-.39-.13c-.13.13-.13.13-.13.26a3.5,3.5,0,0,0,.91,1.04h0c-.39,0-.65-.52-.91-.39a.18.18,0,0,0,0,.26c.13.26.52.52.26.78-.26,0-.39-.26-.52-.39,0-.39-.39-.39-.65-.52s-.52,0-.91,0c-.26-.13-.52.13-.78-.13A2.44,2.44,0,0,1,42.165,29.409ZM41.9,43.833c.13-.52,0-1.04.39-1.429.26,0,.13.39.13.52.13.39.13.91.26,1.3a.715.715,0,0,1-.65.39C41.775,44.482,41.9,44.093,41.9,43.833Zm2.209-.65c.13-.13.26-.13.26,0a3.794,3.794,0,0,1-.26,1.169c-.39.52-.52,1.169-.91,1.689-.26.13-.52.52-.91.52a1.94,1.94,0,0,1-.39-.91A13.1,13.1,0,0,0,44.114,43.183Zm-1.559,4.808c-.13.13-.26.26-.52.13,0-.26-.13-.78.13-.91.13-.13.39-.39.52-.13C42.814,47.471,42.814,47.861,42.555,47.991Zm.52-.13A7,7,0,0,0,44.244,46.3l.13-.13A5.6,5.6,0,0,1,43.2,49.031a2.11,2.11,0,0,1-1.169.65.279.279,0,0,1-.26-.26c0-.13-.13-.26-.13-.39A4.062,4.062,0,0,0,43.074,47.861Zm-2.729-.52a.981.981,0,0,1,.52-.91.993.993,0,0,1,.65-.26l.26.39c0,.52-.52.65-.91,1.04-.13,0-.13.13-.26.13C40.345,47.6,40.345,47.471,40.345,47.341Zm.26,5.068c-.13,0-.26-.13-.39-.13a.993.993,0,0,1-.26-.65c.13-.26.52-.39.65-.65a7.84,7.84,0,0,0,1.04-1.04c.13,0,.39-.13.52,0A5.671,5.671,0,0,1,40.605,52.409Zm2.339,12.215a33.784,33.784,0,0,1-1.3-5.2c-.26-1.559-.39-3.119-.65-4.678a11.113,11.113,0,0,0,0-2.079,1.3,1.3,0,0,1,.65-.52.127.127,0,0,1,.13.13c0,1.169.26,2.209.26,3.379a19.53,19.53,0,0,1,.26,2.6c0,.91.13,1.819.13,2.729.13,1.04.26,1.949.39,2.859,0,.26.13.52.13.78Zm.39-1.3c-.13-.78-.13-1.689-.26-2.469-.26-1.559-.26-3.249-.39-4.808a4.872,4.872,0,0,1-.13-1.429c-.13-1.04-.13-2.079-.26-2.989a2.814,2.814,0,0,1,.26-1.559c.13-.13.39-.39.52-.26.13,1.04,0,2.079.13,3.119a4.42,4.42,0,0,1,.13,1.3c.13,1.689.13,3.249.39,4.808.26,2.209.52,4.418.78,6.757.13.78.26,1.559.39,2.469,0,0-.13.13-.13,0A16.552,16.552,0,0,1,43.334,63.324Zm18.322.52a33.967,33.967,0,0,1-.78,3.508,2.448,2.448,0,0,1-.26,1.04h-.13c0-.91.39-1.559.39-2.339.13-.65.13-1.3.26-1.949a17.415,17.415,0,0,0,.13-2.6,2.211,2.211,0,0,0,.13-.91,9.835,9.835,0,0,1,.13-1.949,11.373,11.373,0,0,0,.26-2.079,36.713,36.713,0,0,0,.26-3.768c.13-.39,0-.91.13-1.169V50.59c.13-.26-.26-.91.26-1.04.13.13.39.26.52.39,0,.39-.13.78-.13,1.169,0,.65-.13,1.3-.13,2.079a20.12,20.12,0,0,1-.13,2.859c-.13,1.169-.26,2.339-.39,3.379A27.181,27.181,0,0,1,61.656,63.844ZM64.515,51.5c-.13.78,0,1.429-.13,2.209,0,.65-.26,1.3-.26,1.949,0,1.04-.39,1.949-.39,2.989a24.578,24.578,0,0,1-.65,2.989,25.667,25.667,0,0,1-1.04,3.379h-.13c.13-1.04.39-2.209.52-3.249.26-1.3.52-2.729.78-4.028.13-1.04.13-2.079.26-3.119.13-1.3.26-2.6.39-3.768.13-.13.39.13.52.13C64.515,51.11,64.515,51.24,64.515,51.5Zm.78-.65a6.526,6.526,0,0,1-1.689-1.559.993.993,0,0,1-.26-.65c.13-.13.13-.26.26-.13.26,0,.39.39.78.39a.477.477,0,0,1,.13.39l.91.91c.13.13.26.26.13.52C65.555,50.72,65.425,50.98,65.295,50.85Z" transform="translate(-39.28 -27.2)" fill="#fff"/>
      <path id="Path_361" data-name="Path 361" d="M42.16,29.16a1.4,1.4,0,0,0,1.04.26c.39.13.78,0,1.04.26a.81.81,0,0,1,.39.65h0c-.78-.39-1.689,0-2.339-.65-.26,0-.39-.26-.39-.52V28.9C42.03,28.9,42.03,29.16,42.16,29.16Z" transform="translate(-38.496 -26.691)" fill="#fff"/>
      <path id="Path_362" data-name="Path 362" d="M58.059,29a.7.7,0,0,1-.39.52,3.873,3.873,0,0,1-2.469.52v-.13a8.4,8.4,0,0,0,1.689-.52A2.467,2.467,0,0,1,58.059,29Z" transform="translate(-34.513 -26.661)" fill="#fff"/>
      <path id="Path_363" data-name="Path 363" d="M45.322,33.9c-.13,0-1.04,1.429-.13,2.209,1.169,1.04,2.6-.78,2.339-1.169-.13-.13-.52,1.04-1.559.78C44.8,35.459,45.452,33.9,45.322,33.9Z" transform="translate(-37.63 -25.194)" fill="#fff"/>
      <path id="Path_364" data-name="Path 364" d="M52.5,35.812c0,.39,1.429,1.04,2.209.13.91-1.429-.39-2.209-.78-1.819-.13.13.78.52.39,1.429C53.67,36.462,52.5,35.552,52.5,35.812Z" transform="translate(-35.322 -25.157)" fill="#fff"/>
    </g>
  </g>
  <rect id="Rectangle_169" data-name="Rectangle 169" width="340" height="92" transform="translate(0.215)" fill="none"/>
</svg>
